<svg  xmlns="http://www.w3.org/2000/svg" x="0px" y="0px" viewBox="0 0 512 512" style="enable-background:new 0 0 512 512;" xml:space="preserve"><g><path d="M374.8,59.4V10.8c0-4.7-3.8-8.5-8.5-8.5h-19.1c-4.7,0-8.5,3.8-8.5,8.5v48.6H174.1V10.8c0-4.7-3.8-8.5-8.5-8.5h-19.1
		c-4.7,0-8.5,3.8-8.5,8.5v48.7C81,59.9,34.8,106.3,34.8,163.6v6.7h443.5v-6.7C478.2,106.3,432,59.9,374.8,59.4z"/><path d="M460.3,215.6H52.7c-9.9,0-18,8.1-18,18v171.9c0,57.6,46.7,104.2,104.2,104.2h235c57.6,0,104.2-46.7,104.2-104.2V233.6
		C478.2,223.6,470.2,215.6,460.3,215.6z M170.8,428.3c-14,0-25.4-11.4-25.4-25.4c0-14,11.4-25.4,25.4-25.4s25.4,11.4,25.4,25.4
		C196.2,416.9,184.8,428.3,170.8,428.3z M170.8,345.9c-14,0-25.4-11.4-25.4-25.4c0-14,11.4-25.4,25.4-25.4s25.4,11.4,25.4,25.4
		C196.2,334.6,184.8,345.9,170.8,345.9z M256.5,345.9c-14,0-25.4-11.4-25.4-25.4c0-14,11.4-25.4,25.4-25.4c14,0,25.4,11.4,25.4,25.4
		C281.9,334.6,270.5,345.9,256.5,345.9z"/></g>
</svg>
