<svg xmlns="http://www.w3.org/2000/svg" x="0px" y="0px"
	 viewBox="0 0 512 512" style="enable-background:new 0 0 512 512;" xml:space="preserve"><g><path d="M356.5,130.2h91.7c4.1,0,6.1-4.9,3.3-7.8L342,10.7c-2.9-2.9-7.8-0.9-7.8,3.2v94C334.2,120.2,344.2,130.2,356.5,130.2z"/>
	<path d="M445.6,182.7h-97.5c-36.7,0-66.4-29.7-66.4-66.4V16.2c0-7.5-6-13.5-13.5-13.5l-96.9-0.4c-64.9,0-117.6,52.6-117.6,117.6
		v272.5c0,64.9,52.6,117.6,117.6,117.6h170.2c64.9,0,117.6-52.6,117.6-117.6v-196C459.2,188.7,453.1,182.7,445.6,182.7z
		 M253.1,390.7h-76.7c-16.9,0-30.5-13.7-30.5-30.5s13.7-30.5,30.5-30.5h76.7c16.9,0,30.5,13.7,30.5,30.5S270,390.7,253.1,390.7z
		 M324.5,286.5H176.4c-16.9,0-30.5-13.7-30.5-30.5s13.7-30.5,30.5-30.5h148.1c16.9,0,30.5,13.7,30.5,30.5S341.4,286.5,324.5,286.5z"
		/></g>
</svg>
