<svg width="343" height="343" viewBox="0 0 343 343" fill="none" xmlns="http://www.w3.org/2000/svg">
<path d="M171.5 335.653C246.156 335.653 306.676 301.273 306.676 258.862C306.676 216.452 246.156 182.071 171.5 182.071C96.8442 182.071 36.3237 216.452 36.3237 258.862C36.3237 301.273 96.8442 335.653 171.5 335.653Z" fill="#F5F5F5"/>
<path d="M227.752 307.28L126.848 249.018C125.961 248.507 125.223 247.771 124.711 246.884C124.198 245.997 123.928 244.99 123.928 243.966C123.928 242.941 124.198 241.935 124.711 241.048C125.223 240.161 125.961 239.425 126.848 238.913L136.802 232.637C138.52 231.647 140.468 231.126 142.451 231.126C144.434 231.126 146.382 231.647 148.101 232.637L249.018 290.905C249.906 291.417 250.643 292.153 251.155 293.04C251.668 293.927 251.938 294.933 251.938 295.958C251.938 296.982 251.668 297.989 251.155 298.875C250.643 299.762 249.906 300.499 249.018 301.01L239.064 307.28C237.345 308.275 235.394 308.799 233.408 308.799C231.422 308.799 229.471 308.275 227.752 307.28Z" fill="#E0E0E0"/>
<path d="M74.328 254.163C86.4215 254.163 96.2252 248.534 96.2252 241.589C96.2252 234.644 86.4215 229.015 74.328 229.015C62.2346 229.015 52.4309 234.644 52.4309 241.589C52.4309 248.534 62.2346 254.163 74.328 254.163Z" fill="#E6E6E6"/>
<path d="M263.534 257.044L273.138 262.567C273.138 262.567 268.233 247.152 270.847 231.614C271.834 225.742 273.954 222.827 274.695 221.256C275.436 219.685 281.178 209.978 276.067 205.533C270.956 201.087 259.068 210.026 259.713 233.947C260.006 241.777 261.29 249.538 263.534 257.044Z" fill="#265073"/>
<path opacity="0.5" d="M263.534 257.044L273.138 262.567C273.138 262.567 268.233 247.152 270.847 231.614C271.834 225.742 273.954 222.827 274.695 221.256C275.436 219.685 281.178 209.978 276.067 205.533C270.956 201.087 259.068 210.026 259.713 233.947C260.006 241.777 261.29 249.538 263.534 257.044Z" fill="black"/>
<path d="M268 259.953C267.93 259.954 267.861 259.934 267.803 259.895C267.746 259.855 267.701 259.799 267.677 259.733C267.643 259.63 263.973 249.601 264.089 233.48C264.206 217.359 272.678 208.606 272.76 208.523C272.792 208.491 272.83 208.466 272.872 208.448C272.914 208.431 272.959 208.422 273.004 208.422C273.049 208.422 273.094 208.431 273.136 208.448C273.178 208.466 273.216 208.491 273.247 208.523C273.28 208.555 273.305 208.593 273.323 208.635C273.34 208.677 273.349 208.722 273.349 208.767C273.349 208.812 273.34 208.857 273.323 208.899C273.305 208.941 273.28 208.978 273.247 209.01C273.165 209.093 264.892 217.585 264.775 233.487C264.659 249.388 268.281 259.404 268.322 259.5C268.353 259.585 268.349 259.68 268.31 259.762C268.271 259.844 268.202 259.908 268.116 259.939C268.079 259.951 268.039 259.955 268 259.953Z" fill="white"/>
<path d="M267.54 259.405L280.67 266.951C282.038 267.759 283.661 268.023 285.214 267.688C286.768 267.354 288.139 266.446 289.053 265.147C289.922 263.794 290.289 262.18 290.089 260.585C289.458 253.766 286.494 252.195 290.123 249.156C293.752 246.117 294.699 245.904 294.493 242.982C294.287 240.06 292.291 238.784 291.344 237.631C290.397 236.479 287.777 234.064 289.561 230.497C291.344 226.929 293.779 223.479 290.089 221.901C287.887 220.954 284.217 222.217 281.802 224.837C279.387 227.458 277.398 229.344 275.086 229.975C272.774 230.606 267.958 230.709 268.164 234.695C268.37 238.681 269.426 240.046 268.48 241.823C266.696 245.143 258.937 247.029 267.54 259.405Z" fill="#265073"/>
<path d="M274.029 263.465C273.944 263.462 273.862 263.429 273.799 263.371C273.736 263.313 273.696 263.234 273.686 263.149C273.686 262.916 271.67 239.373 287.859 223.704C287.926 223.649 288.011 223.622 288.098 223.627C288.184 223.632 288.265 223.669 288.325 223.732C288.385 223.794 288.419 223.877 288.42 223.964C288.422 224.05 288.39 224.134 288.333 224.198C272.376 239.64 274.352 262.854 274.372 263.088C274.38 263.178 274.352 263.267 274.294 263.336C274.236 263.406 274.154 263.449 274.064 263.458L274.029 263.465Z" fill="white"/>
<path d="M276.63 243.201C276.543 243.201 276.46 243.169 276.396 243.11C276.333 243.052 276.294 242.972 276.287 242.885C276.143 241.061 275.629 239.285 274.776 237.665C273.924 236.046 272.75 234.617 271.327 233.467C271.29 233.441 271.258 233.408 271.234 233.369C271.21 233.331 271.193 233.288 271.186 233.244C271.178 233.199 271.179 233.153 271.189 233.109C271.199 233.065 271.218 233.023 271.245 232.986C271.27 232.95 271.302 232.918 271.34 232.894C271.378 232.87 271.42 232.853 271.464 232.846C271.508 232.838 271.553 232.839 271.597 232.849C271.64 232.859 271.682 232.878 271.718 232.904C273.234 234.107 274.485 235.611 275.389 237.322C276.294 239.034 276.833 240.914 276.973 242.844C276.98 242.936 276.951 243.027 276.892 243.098C276.833 243.168 276.749 243.213 276.657 243.222L276.63 243.201Z" fill="white"/>
<path d="M275.511 247.242C275.428 247.242 275.348 247.213 275.285 247.159C275.217 247.099 275.175 247.014 275.169 246.923C275.162 246.832 275.192 246.742 275.251 246.672C275.415 246.48 279.47 242.007 288.971 243.194C289.061 243.206 289.142 243.253 289.198 243.325C289.253 243.397 289.277 243.488 289.266 243.578C289.254 243.669 289.207 243.751 289.135 243.807C289.063 243.864 288.972 243.89 288.882 243.88C279.758 242.735 275.8 247.084 275.758 247.125C275.727 247.16 275.689 247.188 275.647 247.208C275.604 247.228 275.558 247.24 275.511 247.242Z" fill="white"/>
<path d="M224.679 300.317L135.938 249.08C129.675 245.465 124.598 235.765 124.598 227.416V37.394C124.598 29.0454 129.675 25.2107 135.938 28.8259L224.679 80.0632C230.942 83.6784 236.018 93.3785 236.018 101.727V291.749C236.018 300.091 230.942 303.932 224.679 300.317Z" fill="#455A64"/>
<path d="M234.9 74.0883L146.152 22.851C143.477 21.3075 141.021 21.1291 139.08 22.0758C138.842 22.1948 138.613 22.33 138.394 22.4805L128.447 28.2635C130.45 27.063 133.07 27.1522 135.945 28.8123L224.685 80.0497C230.949 83.6649 236.025 93.3649 236.025 101.714V291.736C236.025 296.153 234.605 299.282 232.341 300.763L242.158 295.049C244.662 293.718 246.274 290.46 246.274 285.788V95.7659C246.274 87.4036 241.163 77.7035 234.9 74.0883Z" fill="#37474F"/>
<path d="M236.018 101.713V291.735C236.018 296.153 234.598 299.281 232.334 300.763L242.158 295.049C244.662 293.718 246.274 290.459 246.274 285.788V95.7656L236.053 101.7L236.018 101.713Z" fill="#263238"/>
<path d="M246.24 110.508L236.018 116.407V121.017L246.24 115.111V110.508Z" fill="#37474F"/>
<path d="M241.76 141.165C240.848 141.693 240.107 141.131 240.107 139.917V130.004C240.116 129.384 240.271 128.775 240.558 128.226C240.845 127.677 241.257 127.203 241.76 126.841C242.673 126.313 243.413 126.841 243.413 128.09V138.003C243.404 138.622 243.25 139.231 242.963 139.78C242.676 140.33 242.264 140.804 241.76 141.165Z" fill="#37474F"/>
<path d="M240.1 139.944V130.004C240.109 129.385 240.264 128.776 240.551 128.227C240.838 127.677 241.25 127.203 241.753 126.842C241.904 126.737 242.079 126.672 242.262 126.656C242.445 126.639 242.629 126.67 242.796 126.746L241.554 126.108C241.384 126.026 241.196 125.991 241.008 126.005C240.82 126.02 240.639 126.083 240.484 126.19C239.98 126.551 239.567 127.026 239.279 127.575C238.991 128.124 238.835 128.733 238.824 129.353V139.258C238.798 139.509 238.836 139.761 238.935 139.993C239.033 140.224 239.188 140.427 239.386 140.582L240.683 141.268C240.477 141.12 240.314 140.919 240.211 140.686C240.109 140.453 240.07 140.197 240.1 139.944Z" fill="#455A64"/>
<path d="M241.76 165.155C240.848 165.683 240.107 165.155 240.107 163.907V153.994C240.117 153.374 240.271 152.766 240.558 152.217C240.845 151.667 241.257 151.193 241.76 150.831C242.673 150.303 243.413 150.831 243.413 152.087V161.993C243.405 162.613 243.251 163.222 242.964 163.771C242.677 164.321 242.265 164.795 241.76 165.155Z" fill="#37474F"/>
<path d="M240.1 163.906V153.993C240.11 153.374 240.264 152.765 240.552 152.216C240.839 151.667 241.25 151.192 241.753 150.831C241.905 150.727 242.08 150.664 242.262 150.647C242.445 150.631 242.628 150.661 242.796 150.735L241.554 150.09C241.385 150.004 241.196 149.967 241.008 149.982C240.819 149.996 240.638 150.062 240.484 150.172C239.979 150.532 239.566 151.006 239.277 151.555C238.989 152.105 238.834 152.714 238.824 153.335V163.268C238.798 163.518 238.835 163.771 238.934 164.003C239.032 164.234 239.188 164.437 239.387 164.592L240.683 165.278C240.468 165.126 240.3 164.917 240.197 164.675C240.094 164.432 240.061 164.166 240.1 163.906Z" fill="#455A64"/>
<path d="M221.578 85.3939L134.374 35.0278C134.01 34.8184 133.597 34.7078 133.178 34.707C132.758 34.7063 132.345 34.8153 131.98 35.0233C131.615 35.2313 131.311 35.5311 131.098 35.8929C130.885 36.2547 130.77 36.6659 130.765 37.0857V227.416C130.765 233.769 135.272 241.569 140.774 244.745L225.838 293.883C226.242 294.115 226.699 294.237 227.164 294.237C227.63 294.236 228.087 294.114 228.49 293.881C228.893 293.648 229.228 293.313 229.461 292.91C229.694 292.507 229.816 292.05 229.817 291.585V99.6832C229.851 94.4422 226.133 88.0144 221.578 85.3939Z" fill="#265073"/>
<path opacity="0.9" d="M221.578 85.3939L134.374 35.0278C134.01 34.8184 133.597 34.7078 133.178 34.707C132.758 34.7063 132.345 34.8153 131.98 35.0233C131.615 35.2313 131.311 35.5311 131.098 35.8929C130.885 36.2547 130.77 36.6659 130.765 37.0857V227.416C130.765 233.769 135.272 241.569 140.774 244.745L225.838 293.883C226.242 294.115 226.699 294.237 227.164 294.237C227.63 294.236 228.087 294.114 228.49 293.881C228.893 293.648 229.228 293.313 229.461 292.91C229.694 292.507 229.816 292.05 229.817 291.585V99.6832C229.851 94.4422 226.133 88.0144 221.578 85.3939Z" fill="white"/>
<path d="M160.455 48.1777L161.807 53.8647L190.715 70.5345L195.709 67.8728L160.455 48.1777Z" fill="#455A64"/>
<path d="M168.955 53.6727C168.955 54.6194 168.269 54.9967 167.473 54.5302C167.046 54.2466 166.691 53.8668 166.437 53.4212C166.184 52.9756 166.038 52.4767 166.012 51.9646C166.012 51.0248 166.698 50.6406 167.494 51.114C167.921 51.3961 168.276 51.7747 168.529 52.2192C168.783 52.6636 168.929 53.1616 168.955 53.6727Z" fill="#263238"/>
<path d="M188.43 65.712C188.272 65.7107 188.117 65.6706 187.978 65.5953L173.215 57.3633C173.006 57.2409 172.854 57.0419 172.791 56.8087C172.727 56.5755 172.757 56.3267 172.874 56.1153C172.992 55.904 173.187 55.7469 173.418 55.6776C173.65 55.6082 173.899 55.6322 174.114 55.7444L188.883 63.9764C189.063 64.0762 189.204 64.2328 189.285 64.4217C189.366 64.6105 189.381 64.8209 189.329 65.0196C189.278 65.2184 189.161 65.3943 188.998 65.5196C188.836 65.6449 188.636 65.7126 188.43 65.712Z" fill="#263238"/>
<path d="M149.054 74.6372C148.156 74.1158 147.504 74.5686 147.504 75.7142C147.504 76.2871 147.645 76.8511 147.916 77.3561C148.186 77.8612 148.577 78.2916 149.054 78.6091C149.31 78.7641 149.603 78.8461 149.901 78.8461C150.2 78.8461 150.493 78.7641 150.749 78.6091L152.182 81.2022C151.678 81.4805 151.106 81.6131 150.531 81.5853C149.955 81.5574 149.399 81.3701 148.924 81.0444C147.759 80.3318 146.788 79.343 146.096 78.1656C145.405 76.9882 145.014 75.6585 144.959 74.2942C144.959 71.7491 146.667 70.8642 149.02 72.2362C150.349 73.0918 151.437 74.2724 152.182 75.6662L150.749 76.8049C150.395 75.9396 149.809 75.1892 149.054 74.6372Z" fill="#265073"/>
<path d="M160.435 83.2323C160.435 85.7979 158.699 86.6623 156.319 85.2903C155.121 84.5743 154.118 83.5735 153.4 82.3767C152.682 81.1799 152.271 79.8243 152.203 78.4303C152.203 75.8646 153.938 75.0003 156.319 76.3723C157.52 77.085 158.525 78.085 159.243 79.2825C159.962 80.48 160.371 81.8372 160.435 83.2323ZM154.748 79.96C154.76 80.549 154.912 81.1268 155.191 81.6456C155.47 82.1644 155.868 82.6095 156.353 82.9441C157.204 83.4381 157.89 82.9441 157.89 81.7779C157.888 81.2022 157.747 80.6355 157.479 80.1257C157.212 79.6158 156.826 79.1779 156.353 78.8487C155.489 78.3479 154.748 78.7733 154.748 79.96Z" fill="#265073"/>
<path d="M163.199 80.5091L166.163 86.6831V82.2378L168.406 83.5343V92.1848L166.348 90.9911L163.398 84.872V89.2899L161.141 87.9865V79.3154L163.199 80.5091Z" fill="#265073"/>
<path d="M175.739 87.747V90.0108L173.599 88.776V95.1696L171.123 93.7358V87.3423L168.996 86.1144V83.8574L175.739 87.747Z" fill="#265073"/>
<path d="M180.569 97.9678L177.756 96.342L177.372 97.3435L174.834 95.8755L177.996 89.0498L180.541 90.5178L183.587 100.931L180.946 99.4084L180.569 97.9678ZM179.958 95.5668L179.19 92.6101L178.401 94.6681L179.958 95.5668Z" fill="#265073"/>
<path d="M187.518 96.8432C186.619 96.3287 185.968 96.7746 185.968 97.9271C185.969 98.4998 186.111 99.0634 186.381 99.5682C186.652 100.073 187.042 100.504 187.518 100.822C187.775 100.975 188.069 101.057 188.369 101.057C188.668 101.057 188.962 100.975 189.219 100.822L190.653 103.415C190.146 103.69 189.574 103.821 188.998 103.793C188.422 103.765 187.865 103.58 187.388 103.257C186.222 102.544 185.25 101.554 184.559 100.376C183.867 99.1969 183.477 97.8658 183.423 96.5002C183.423 93.9552 185.138 93.0702 187.484 94.4422C188.811 95.302 189.901 96.4815 190.653 97.8722L189.219 99.0041C188.858 98.1433 188.27 97.3965 187.518 96.8432Z" fill="#265073"/>
<path d="M197.417 100.267V102.523L195.277 101.289V107.703L192.8 106.269V99.8755L190.674 98.6476V96.3906L197.417 100.267Z" fill="#265073"/>
<path d="M204.737 110.885C205.347 111.235 205.814 110.961 205.814 110.103V105.116L208.297 106.543V111.53C208.297 113.828 206.925 114.514 204.73 113.259C203.672 112.671 202.783 111.822 202.148 110.793C201.512 109.764 201.152 108.588 201.101 107.38V102.393L203.584 103.826V108.814C203.594 109.226 203.704 109.631 203.904 109.992C204.105 110.353 204.391 110.659 204.737 110.885Z" fill="#265073"/>
<path d="M212.296 110.913C212.015 110.755 211.837 110.748 211.837 111.009C211.837 112.092 215.713 113.657 215.713 116.792C215.713 118.712 214.251 118.719 212.564 117.745C211.081 116.836 209.803 115.628 208.812 114.198L209.731 112.58C210.485 113.747 211.453 114.762 212.585 115.57C212.948 115.783 213.181 115.783 213.181 115.474C213.181 114.349 209.299 112.854 209.299 109.815C209.299 108.086 210.561 107.757 212.509 108.855C213.764 109.614 214.869 110.597 215.768 111.756L214.869 113.416C214.127 112.471 213.261 111.629 212.296 110.913Z" fill="#265073"/>
<path d="M136.576 117.265C139.359 113.847 140.76 109.509 140.503 105.108C140.245 100.707 138.347 96.5626 135.184 93.4922C132.021 90.4217 127.822 88.6484 123.415 88.5219C119.008 88.3955 114.714 89.9251 111.38 92.8091C108.046 95.6931 105.914 99.722 105.404 104.101C104.895 108.48 106.045 112.891 108.628 116.463C111.21 120.036 115.038 122.511 119.356 123.399C123.674 124.288 128.168 123.527 131.952 121.265L140.541 124.996L136.576 117.265Z" fill="#265073"/>
<path opacity="0.4" d="M136.576 117.265C139.359 113.847 140.76 109.509 140.503 105.108C140.245 100.707 138.347 96.5626 135.184 93.4922C132.021 90.4217 127.822 88.6484 123.415 88.5219C119.008 88.3955 114.714 89.9251 111.38 92.8091C108.046 95.6931 105.914 99.722 105.404 104.101C104.895 108.48 106.045 112.891 108.628 116.463C111.21 120.036 115.038 122.511 119.356 123.399C123.674 124.288 128.168 123.527 131.952 121.265L140.541 124.996L136.576 117.265Z" fill="black"/>
<path d="M116.38 105.192C116.38 104.924 116.188 104.773 115.838 104.773C115.027 104.879 114.269 105.237 113.67 105.795L112.696 103.902C113.722 103.13 114.96 102.694 116.243 102.653C117.889 102.653 119.138 103.518 119.138 104.807C119.138 105.727 118.452 106.612 117.574 107.496L116.346 108.711H119.248V110.728H113.012V109.074L115.79 106.2C116.089 105.935 116.296 105.582 116.38 105.192Z" fill="white"/>
<path d="M124.324 102.77L122.431 107.311H123.206V105.781H125.593V107.311H126.499V109.184H125.593V110.727H123.206V109.184H119.81V107.482L121.868 102.77H124.324Z" fill="white"/>
<path d="M133.866 106.77V110.728H131.314V107.504C131.329 107.399 131.321 107.292 131.291 107.19C131.261 107.088 131.209 106.994 131.139 106.914C131.07 106.834 130.984 106.77 130.887 106.726C130.791 106.682 130.686 106.66 130.58 106.66C130.079 106.66 129.764 107.051 129.764 107.654V110.728H127.212V102.317H129.764V105.411C129.963 105.096 130.242 104.837 130.571 104.662C130.901 104.486 131.27 104.399 131.643 104.41C131.949 104.402 132.253 104.459 132.536 104.576C132.818 104.694 133.073 104.87 133.282 105.093C133.492 105.315 133.653 105.58 133.753 105.869C133.854 106.158 133.892 106.465 133.866 106.77Z" fill="white"/>
<path d="M217.078 170.513V255.749C217.079 256.713 216.827 257.66 216.346 258.495C215.865 259.331 215.172 260.025 214.337 260.507C213.503 260.99 212.556 261.244 211.592 261.245C210.628 261.245 209.681 260.991 208.846 260.509L162.939 234.002L154.803 229.31C152.001 227.69 149.674 225.363 148.054 222.562C146.433 219.761 145.577 216.583 145.569 213.347V128.105C145.568 127.14 145.82 126.193 146.302 125.358C146.783 124.522 147.475 123.828 148.31 123.346C149.144 122.863 150.091 122.609 151.055 122.608C152.019 122.608 152.966 122.862 153.801 123.344L207.858 154.55C210.661 156.167 212.989 158.494 214.607 161.296C216.225 164.098 217.078 167.277 217.078 170.513Z" fill="#265073"/>
<path opacity="0.5" d="M217.078 170.513V255.749C217.079 256.713 216.827 257.66 216.346 258.495C215.865 259.331 215.172 260.025 214.337 260.507C213.503 260.99 212.556 261.244 211.592 261.245C210.628 261.245 209.681 260.991 208.846 260.509L162.939 234.002L154.803 229.31C152.001 227.69 149.674 225.363 148.054 222.562C146.433 219.761 145.577 216.583 145.569 213.347V128.105C145.568 127.14 145.82 126.193 146.302 125.358C146.783 124.522 147.475 123.828 148.31 123.346C149.144 122.863 150.091 122.609 151.055 122.608C152.019 122.608 152.966 122.862 153.801 123.344L207.858 154.55C210.661 156.167 212.989 158.494 214.607 161.296C216.225 164.098 217.078 167.277 217.078 170.513Z" fill="white"/>
<path d="M190.633 220.947C190.633 220.947 199.228 235.202 193.02 251.275L162.918 234.002L190.633 220.947Z" fill="#263238"/>
<path d="M204.341 156.9C204.991 151.617 201.236 146.807 195.952 146.156C190.669 145.506 185.859 149.261 185.208 154.544C184.558 159.827 188.313 164.638 193.597 165.288C198.88 165.939 203.69 162.183 204.341 156.9Z" fill="#263238"/>
<path d="M194.824 128.687C194.824 128.687 197.781 123.885 198.686 124.235C199.592 124.585 198.096 129.161 198.096 129.161C198.096 129.161 202.569 130.093 201.739 131.219C200.909 132.344 195.441 132.076 195.441 132.076L194.824 128.687Z" fill="#263238"/>
<path d="M196.882 141.062C194.824 156.525 181.79 156.525 181.79 156.525L154.487 144.506C154.487 144.506 152.429 142.702 151.798 138.558C151.556 136.861 151.556 135.138 151.798 133.441C151.798 133.441 151.798 133.406 151.798 133.393C152.669 126.889 157.533 119.899 168.125 117.752C170.446 117.283 172.809 117.053 175.177 117.066C176.323 117.062 177.467 117.119 178.607 117.237C186.839 118.047 192.608 121.888 195.359 127.864C195.978 129.212 196.438 130.628 196.731 132.082C197.289 135.046 197.34 138.082 196.882 141.062Z" fill="#263238"/>
<path d="M131.335 170.972C131.335 170.972 121.642 170.636 117.91 180.082C117.91 180.082 122.026 182.861 127.424 180.082C132.823 177.304 131.335 170.972 131.335 170.972Z" fill="#265073"/>
<path opacity="0.5" d="M131.335 170.972C131.335 170.972 121.642 170.636 117.91 180.082C117.91 180.082 122.026 182.861 127.424 180.082C132.823 177.304 131.335 170.972 131.335 170.972Z" fill="black"/>
<path d="M131.06 175.52C131.06 175.52 128.316 163.598 126.869 163.454C125.421 163.31 125.14 167.089 125.257 169.223L121.827 161.842C121.718 161.612 121.563 161.408 121.372 161.24C121.182 161.073 120.958 160.946 120.717 160.869C120.475 160.791 120.22 160.763 119.967 160.788C119.715 160.813 119.47 160.889 119.247 161.012C115.817 162.898 109.801 168.633 122.485 182.813L131.06 175.52Z" fill="#945959"/>
<path d="M166.184 167.275L164.126 167.008C162.052 166.733 159.942 167.015 158.013 167.825C156.084 168.635 154.405 169.944 153.15 171.617L140.905 187.917L131.301 170.973C131.301 170.973 130.148 182.497 117.875 180.083L131.054 202.261C131.888 203.665 133.048 204.847 134.437 205.706C135.826 206.565 137.402 207.076 139.031 207.195C140.659 207.314 142.293 207.038 143.792 206.391C145.291 205.743 146.611 204.743 147.641 203.475L158.919 189.611L166.184 167.275Z" fill="#265073"/>
<path d="M192.32 205.313C189.576 212.269 189.274 213.627 190.948 217.105C192.114 219.674 193.033 222.348 193.692 225.09C193.692 225.09 180.974 239.345 162.87 234.008L154.734 229.316C153.042 228.34 151.518 227.099 150.22 225.639L152.697 207.172C152.822 206.2 152.723 205.212 152.409 204.284L149.809 196.662C148.54 192.94 148.351 188.934 149.264 185.109C150.177 181.284 152.155 177.795 154.968 175.047L163.707 166.506L186.661 169.442L190.091 170.423C192.336 171.072 194.272 172.51 195.542 174.472C196.813 176.435 197.332 178.789 197.006 181.104C195.881 189.199 194.042 200.943 192.32 205.313Z" fill="#265073"/>
<path opacity="0.5" d="M192.32 205.313C189.576 212.269 189.274 213.627 190.948 217.105C192.114 219.674 193.033 222.348 193.692 225.09C193.692 225.09 180.974 239.345 162.87 234.008L154.734 229.316C153.042 228.34 151.518 227.099 150.22 225.639L152.697 207.172C152.822 206.2 152.723 205.212 152.409 204.284L149.809 196.662C148.54 192.94 148.351 188.934 149.264 185.109C150.177 181.284 152.155 177.795 154.968 175.047L163.707 166.506L186.661 169.442L190.091 170.423C192.336 171.072 194.272 172.51 195.542 174.472C196.813 176.435 197.332 178.789 197.006 181.104C195.881 189.199 194.042 200.943 192.32 205.313Z" fill="black"/>
<path d="M178.477 184.534L173.881 180.617C173.394 180.201 172.807 179.918 172.178 179.798C171.549 179.678 170.899 179.724 170.293 179.931L164.736 181.845L163.988 178.73C163.872 178.246 163.658 177.79 163.36 177.39C163.063 176.991 162.687 176.655 162.256 176.405C161.826 176.154 161.349 175.993 160.854 175.932C160.359 175.871 159.857 175.91 159.379 176.048L156.971 176.734L161.046 168.928C162.376 166.385 164.425 164.29 166.938 162.904L168.537 162.026L181.742 162.712C181.742 162.712 186.661 164.77 186.661 169.401L178.477 184.493" fill="#265073"/>
<path d="M181.797 168.564L168.557 178.882V146.029H181.797V168.564Z" fill="#945959"/>
<path d="M168.763 165.854L164.736 181.873L181.742 168.564L168.763 165.854Z" fill="#945959"/>
<path d="M168.557 163.474C171.501 162.381 174.192 160.701 176.467 158.536C178.742 156.371 180.553 153.766 181.79 150.879V146.029H168.55L168.557 163.474Z" fill="#703838"/>
<path d="M171.411 121.683C166.389 121.683 155.715 124.481 154.48 137.625C153.246 150.769 154.439 160.949 161.217 161.937C167.995 162.925 183.745 158.006 185.858 140.994C187.971 123.981 176.302 121.683 171.411 121.683Z" fill="#945959"/>
<path d="M163.508 143.189V150.934L158.967 149.542L163.508 143.189Z" fill="#703838"/>
<path d="M168.557 146.105C169.428 146.105 170.135 145.398 170.135 144.527C170.135 143.656 169.428 142.949 168.557 142.949C167.686 142.949 166.979 143.656 166.979 144.527C166.979 145.398 167.686 146.105 168.557 146.105Z" fill="#263238"/>
<path d="M159.749 143.429C159.747 143.741 159.654 144.046 159.48 144.304C159.305 144.563 159.059 144.764 158.77 144.882C158.482 145.001 158.165 145.031 157.859 144.969C157.553 144.908 157.273 144.757 157.053 144.536C156.833 144.315 156.683 144.034 156.623 143.728C156.563 143.422 156.594 143.105 156.714 142.817C156.834 142.529 157.036 142.283 157.295 142.11C157.554 141.937 157.859 141.845 158.171 141.845C158.379 141.845 158.585 141.886 158.776 141.965C158.968 142.045 159.143 142.162 159.289 142.309C159.436 142.457 159.552 142.631 159.631 142.823C159.71 143.016 159.75 143.222 159.749 143.429Z" fill="#263238"/>
<path d="M156.243 140.137L159.33 138.305C159.33 138.305 158.15 137.077 156.97 137.811C155.791 138.545 156.243 140.137 156.243 140.137Z" fill="#263238"/>
<path d="M161.375 154.076C162.878 154.186 164.374 153.785 165.621 152.938C165.621 152.938 165.916 155.181 164.036 155.606C162.157 156.031 161.375 154.076 161.375 154.076Z" fill="#703838"/>
<path d="M158.679 126.156C158.679 126.156 160.565 144.301 185.241 144.87C185.241 144.87 192.697 126.835 177.962 120.977C163.227 115.118 158.679 126.156 158.679 126.156Z" fill="#263238"/>
<path d="M192.505 142.154L189.473 140.397C188.321 139.711 186.729 139.807 184.966 140.823C181.468 142.84 178.628 147.758 178.628 151.799C178.628 153.822 179.314 155.229 180.494 155.915L183.471 157.63L183.642 157.726L183.745 157.787C184.87 158.336 186.373 158.206 188.026 157.252C191.524 155.194 194.365 150.317 194.365 146.276C194.344 144.232 193.637 142.819 192.505 142.154Z" fill="#265073"/>
<path d="M192.481 152.486C194.955 148.201 194.956 143.569 192.482 142.141C190.008 140.712 185.997 143.028 183.523 147.313C181.049 151.599 181.048 156.23 183.522 157.658C185.996 159.087 190.007 156.771 192.481 152.486Z" fill="#265073"/>
<path opacity="0.5" d="M192.481 152.486C194.955 148.201 194.956 143.569 192.482 142.141C190.008 140.712 185.997 143.028 183.523 147.313C181.049 151.599 181.048 156.23 183.522 157.658C185.996 159.087 190.007 156.771 192.481 152.486Z" fill="black"/>
<path d="M193.72 145.961L191.662 144.761C190.879 144.294 189.789 144.356 188.581 145.049C187.32 145.873 186.271 146.982 185.517 148.287C184.764 149.592 184.329 151.056 184.246 152.56C184.246 153.932 184.733 154.913 185.522 155.366L187.58 156.539C187.616 156.566 187.655 156.589 187.696 156.608L187.765 156.649C188.247 156.832 188.767 156.894 189.279 156.829C189.791 156.765 190.279 156.576 190.701 156.279C191.961 155.455 193.01 154.347 193.764 153.043C194.517 151.739 194.953 150.277 195.037 148.774C194.982 147.381 194.502 146.414 193.72 145.961Z" fill="#265073"/>
<path d="M194.982 148.76C194.898 150.263 194.462 151.725 193.709 153.029C192.956 154.333 191.907 155.441 190.646 156.264C188.245 157.636 186.304 156.525 186.304 153.761C186.385 152.256 186.821 150.792 187.576 149.488C188.33 148.184 189.382 147.076 190.646 146.256C193.04 144.87 194.982 145.988 194.982 148.76Z" fill="#265073"/>
<path opacity="0.3" d="M194.982 148.76C194.898 150.263 194.462 151.725 193.709 153.029C192.956 154.333 191.907 155.441 190.646 156.264C188.245 157.636 186.304 156.525 186.304 153.761C186.385 152.256 186.821 150.792 187.576 149.488C188.33 148.184 189.382 147.076 190.646 146.256C193.04 144.87 194.982 145.988 194.982 148.76Z" fill="black"/>
<path d="M183.087 118.143C181.12 116.624 178.711 115.789 176.227 115.763H175.616C173.1 115.736 170.588 115.966 168.118 116.449C168.571 116.449 169.024 116.449 169.49 116.449H168.118V117.725H169.394C173.792 117.874 177.959 119.728 181.014 122.894C184.07 126.06 185.775 130.29 185.769 134.69V140.088C185.769 140.302 185.813 140.513 185.9 140.708C185.987 140.903 186.113 141.078 186.272 141.221C186.43 141.364 186.617 141.472 186.82 141.538C187.023 141.604 187.237 141.627 187.45 141.605H187.607L188.979 141.179C188.888 141.208 188.794 141.226 188.698 141.234C189.107 141.179 189.481 140.974 189.75 140.661C190.018 140.347 190.161 139.945 190.152 139.533V134.525C190.139 125.463 186.222 120.592 183.087 118.143Z" fill="#265073"/>
<path d="M174.45 161.56C173.884 161.56 173.325 161.438 172.81 161.203L168.523 159.221C168.456 159.197 168.394 159.159 168.343 159.11C168.291 159.061 168.25 159.002 168.222 158.936C168.194 158.871 168.18 158.8 168.181 158.729C168.182 158.658 168.198 158.587 168.228 158.523C168.257 158.458 168.3 158.4 168.353 158.352C168.406 158.305 168.469 158.269 168.536 158.247C168.604 158.225 168.676 158.217 168.746 158.224C168.817 158.231 168.886 158.253 168.948 158.288L173.236 160.27C173.782 160.524 174.395 160.602 174.988 160.491C175.58 160.38 176.124 160.087 176.542 159.653L180.658 155.399C180.755 155.303 180.885 155.249 181.022 155.249C181.158 155.249 181.289 155.303 181.385 155.399C181.48 155.497 181.533 155.627 181.533 155.763C181.533 155.899 181.48 156.029 181.385 156.127L177.269 160.38C176.903 160.756 176.464 161.055 175.98 161.257C175.495 161.46 174.975 161.563 174.45 161.56Z" fill="#265073"/>
<path opacity="0.5" d="M174.45 161.56C173.884 161.56 173.325 161.438 172.81 161.203L168.523 159.221C168.456 159.197 168.394 159.159 168.343 159.11C168.291 159.061 168.25 159.002 168.222 158.936C168.194 158.871 168.18 158.8 168.181 158.729C168.182 158.658 168.198 158.587 168.228 158.523C168.257 158.458 168.3 158.4 168.353 158.352C168.406 158.305 168.469 158.269 168.536 158.247C168.604 158.225 168.676 158.217 168.746 158.224C168.817 158.231 168.886 158.253 168.948 158.288L173.236 160.27C173.782 160.524 174.395 160.602 174.988 160.491C175.58 160.38 176.124 160.087 176.542 159.653L180.658 155.399C180.755 155.303 180.885 155.249 181.022 155.249C181.158 155.249 181.289 155.303 181.385 155.399C181.48 155.497 181.533 155.627 181.533 155.763C181.533 155.899 181.48 156.029 181.385 156.127L177.269 160.38C176.903 160.756 176.464 161.055 175.98 161.257C175.495 161.46 174.975 161.563 174.45 161.56Z" fill="black"/>
<path d="M169.648 157.78C169.648 158.177 169.53 158.564 169.31 158.893C169.09 159.223 168.777 159.479 168.411 159.631C168.045 159.783 167.642 159.822 167.254 159.745C166.865 159.668 166.508 159.477 166.228 159.197C165.948 158.917 165.757 158.56 165.68 158.171C165.603 157.783 165.642 157.38 165.794 157.014C165.946 156.648 166.202 156.335 166.532 156.115C166.861 155.895 167.249 155.777 167.645 155.777C168.176 155.777 168.685 155.988 169.061 156.364C169.437 156.74 169.648 157.249 169.648 157.78Z" fill="#265073"/>
<path opacity="0.5" d="M169.648 157.78C169.648 158.177 169.53 158.564 169.31 158.893C169.09 159.223 168.777 159.479 168.411 159.631C168.045 159.783 167.642 159.822 167.254 159.745C166.865 159.668 166.508 159.477 166.228 159.197C165.948 158.917 165.757 158.56 165.68 158.171C165.603 157.783 165.642 157.38 165.794 157.014C165.946 156.648 166.202 156.335 166.532 156.115C166.861 155.895 167.249 155.777 167.645 155.777C168.176 155.777 168.685 155.988 169.061 156.364C169.437 156.74 169.648 157.249 169.648 157.78Z" fill="black"/>
<path d="M190.139 134.525V139.533C190.148 139.945 190.004 140.347 189.736 140.661C189.468 140.974 189.093 141.178 188.684 141.234C188.458 141.258 188.23 141.234 188.014 141.164C187.798 141.094 187.599 140.979 187.43 140.827C187.261 140.675 187.126 140.489 187.033 140.282C186.941 140.074 186.894 139.849 186.894 139.622V134.525C186.898 132.092 186.41 129.684 185.458 127.445C184.507 125.206 183.113 123.183 181.36 121.497C179.606 119.81 177.53 118.496 175.256 117.634C172.981 116.771 170.556 116.377 168.125 116.476C170.594 115.993 173.107 115.763 175.623 115.79H176.22C178.705 115.816 181.113 116.652 183.08 118.171C186.222 120.592 190.139 125.463 190.139 134.525Z" fill="#265073"/>
<path opacity="0.5" d="M190.139 134.525V139.533C190.148 139.945 190.004 140.347 189.736 140.661C189.468 140.974 189.093 141.178 188.684 141.234C188.458 141.258 188.23 141.234 188.014 141.164C187.798 141.094 187.599 140.979 187.43 140.827C187.261 140.675 187.126 140.489 187.033 140.282C186.941 140.074 186.894 139.849 186.894 139.622V134.525C186.898 132.092 186.41 129.684 185.458 127.445C184.507 125.206 183.113 123.183 181.36 121.497C179.606 119.81 177.53 118.496 175.256 117.634C172.981 116.771 170.556 116.377 168.125 116.476C170.594 115.993 173.107 115.763 175.623 115.79H176.22C178.705 115.816 181.113 116.652 183.08 118.171C186.222 120.592 190.139 125.463 190.139 134.525Z" fill="black"/>
<path d="M182.428 228.898C182.428 228.898 179.108 238.042 190.976 242.158C190.976 242.158 194.852 236.465 190.976 231.807C187.1 227.149 182.428 228.898 182.428 228.898Z" fill="#265073"/>
<path opacity="0.7" d="M182.428 228.898C182.428 228.898 179.108 238.042 190.976 242.158C190.976 242.158 194.852 236.465 190.976 231.807C187.1 227.149 182.428 228.898 182.428 228.898Z" fill="black"/>
<path d="M186.592 229.316C186.592 229.316 174.999 233.563 175.06 235.209C175.122 236.856 179.986 235.731 179.986 235.731L178.209 236.897C176.338 238.117 174.889 239.885 174.059 241.959C173.878 242.417 173.872 242.925 174.041 243.387C174.211 243.848 174.544 244.232 174.978 244.463L179.382 246.796C179.631 246.928 179.904 247.008 180.184 247.033C180.465 247.058 180.747 247.026 181.015 246.94C181.283 246.853 181.531 246.714 181.744 246.53C181.957 246.347 182.132 246.122 182.257 245.87C182.502 245.385 182.841 244.953 183.255 244.6C183.668 244.246 184.147 243.979 184.664 243.812C187.059 243.016 191.524 240.725 193.315 234.455L186.592 229.316Z" fill="#945959"/>
<path d="M190.07 170.409C190.07 170.409 183.896 173.839 187.175 184.253C190.454 194.666 196.608 210.821 196.608 210.821L182.428 228.898C183.943 229.08 185.402 229.58 186.711 230.365C188.019 231.15 189.148 232.202 190.022 233.453C190.86 234.724 191.383 236.177 191.549 237.69C191.715 239.204 191.518 240.735 190.976 242.158L208.578 219.52C210.206 217.428 211.287 214.963 211.723 212.348C212.159 209.734 211.936 207.052 211.075 204.545L203.529 182.51C202.607 179.819 201.074 177.377 199.051 175.376C197.028 173.376 194.569 171.871 191.867 170.979L190.07 170.409Z" fill="#265073"/>
<path d="M85.8529 108.895L58.5707 93.1173C58.2567 92.8997 57.8935 92.7638 57.5138 92.7219C57.1341 92.68 56.7499 92.7334 56.3961 92.8772C56.3215 92.9117 56.2503 92.953 56.1834 93.0007L50.2495 96.4787H50.2907C49.5429 96.904 49.0696 97.8919 49.0696 99.305V129.654C49.0696 132.219 50.6268 135.203 52.5545 136.315L79.8367 152.093C80.1828 152.343 80.5949 152.486 81.0217 152.505C81.4486 152.523 81.8714 152.415 82.2377 152.196C82.2191 152.203 82.2027 152.215 82.1897 152.23L88.0824 148.8C88.8507 148.388 89.3378 147.387 89.3378 145.953V115.556C89.3378 112.991 87.808 110.007 85.8529 108.895Z" fill="#265073"/>
<path d="M88.3637 111.77C87.8117 110.596 86.9419 109.6 85.8529 108.895L58.5707 93.1173C58.2567 92.8997 57.8935 92.7638 57.5138 92.7219C57.1341 92.68 56.7499 92.7334 56.3961 92.8772C56.3215 92.9117 56.2503 92.953 56.1834 93.0007L50.2495 96.4787C50.6125 96.2932 51.0195 96.2111 51.426 96.2413C51.8326 96.2715 52.2229 96.413 52.5545 96.6502L79.8367 112.428C80.9628 113.164 81.8552 114.207 82.4092 115.433L88.3637 111.77Z" fill="#265073"/>
<path d="M83.3216 149.424C83.3216 150.796 82.8826 151.75 82.1897 152.168L88.0824 148.738C88.8508 148.326 89.3378 147.325 89.3378 145.891V115.556C89.3088 114.236 88.9755 112.94 88.3637 111.77L82.4092 115.433C82.9809 116.569 83.2926 117.818 83.3216 119.089V149.424Z" fill="#265073"/>
<path opacity="0.3" d="M88.3637 111.77C87.8117 110.596 86.9419 109.6 85.8529 108.895L58.5707 93.1173C58.2567 92.8997 57.8935 92.7638 57.5138 92.7219C57.1341 92.68 56.7499 92.7334 56.3961 92.8772C56.3215 92.9117 56.2503 92.953 56.1834 93.0007L50.2495 96.4787C50.6125 96.2932 51.0195 96.2111 51.426 96.2413C51.8326 96.2715 52.2229 96.413 52.5545 96.6502L79.8367 112.428C80.9628 113.164 81.8552 114.207 82.4092 115.433L88.3637 111.77Z" fill="black"/>
<path opacity="0.6" d="M83.3216 149.424C83.3216 150.796 82.8826 151.75 82.1897 152.168L88.0824 148.738C88.8508 148.326 89.3378 147.325 89.3378 145.891V115.556C89.3088 114.236 88.9755 112.94 88.3637 111.77L82.4092 115.433C82.9809 116.569 83.2926 117.818 83.3216 119.089V149.424Z" fill="black"/>
<path d="M75.3228 127.781C75.3228 131.712 73.7656 133.049 71.4332 131.698C70.7898 131.332 70.2271 130.839 69.7791 130.249C69.3311 129.66 69.0071 128.986 68.8264 128.268C68.1404 129.112 67.0771 129.167 65.5816 128.302C63.1257 126.882 61.1912 123.5 61.1912 120.214C61.1912 116.928 63.1051 115.796 65.5816 117.223C66.8382 117.964 67.8533 119.053 68.504 120.358V119.062L71.0902 120.557V127.664C71.0517 128.038 71.1163 128.416 71.2772 128.755C71.438 129.095 71.6889 129.385 72.0026 129.592C72.8738 130.099 73.4089 129.242 73.4089 126.697C73.4089 122.245 70.5551 117.525 66.3362 115.09C62.1173 112.655 59.2704 114.349 59.2704 118.931C59.3257 121.363 59.9957 123.741 61.218 125.844C62.4403 127.947 64.1751 129.706 66.2607 130.957C67.3932 131.655 68.6791 132.064 70.0063 132.151L70.6168 134.517C69.0715 134.393 67.5781 133.901 66.2607 133.084C60.7727 129.907 57.1438 123.514 57.1438 117.724C57.1438 111.934 60.807 109.835 66.3362 113.032C71.6801 116.112 75.3228 122.279 75.3228 127.781ZM68.5451 124.481C68.5585 123.611 68.3462 122.753 67.929 121.989C67.5118 121.226 66.904 120.584 66.1647 120.125C64.7927 119.322 63.8117 119.885 63.8117 121.751C63.7941 122.622 64.0013 123.483 64.4135 124.251C64.8257 125.019 65.4288 125.668 66.1647 126.134C67.5367 126.91 68.5451 126.409 68.5451 124.481Z" fill="#265073"/>
<g opacity="0.9">
<path d="M75.3228 127.781C75.3228 131.712 73.7656 133.049 71.4332 131.698C70.7898 131.332 70.2271 130.839 69.7791 130.249C69.3311 129.66 69.0071 128.986 68.8264 128.268C68.1404 129.112 67.0771 129.167 65.5816 128.302C63.1257 126.882 61.1912 123.5 61.1912 120.214C61.1912 116.928 63.1051 115.796 65.5816 117.223C66.8382 117.964 67.8533 119.053 68.504 120.358V119.062L71.0902 120.557V127.664C71.0517 128.038 71.1163 128.416 71.2772 128.755C71.438 129.095 71.6889 129.385 72.0026 129.592C72.8738 130.099 73.4089 129.242 73.4089 126.697C73.4089 122.245 70.5551 117.525 66.3362 115.09C62.1173 112.655 59.2704 114.349 59.2704 118.931C59.3257 121.363 59.9957 123.741 61.218 125.844C62.4403 127.947 64.1751 129.706 66.2607 130.957C67.3932 131.655 68.6791 132.064 70.0063 132.151L70.6168 134.517C69.0715 134.393 67.5781 133.901 66.2607 133.084C60.7727 129.907 57.1438 123.514 57.1438 117.724C57.1438 111.934 60.807 109.835 66.3362 113.032C71.6801 116.112 75.3228 122.279 75.3228 127.781ZM68.5451 124.481C68.5585 123.611 68.3462 122.753 67.929 121.989C67.5118 121.226 66.904 120.584 66.1647 120.125C64.7927 119.322 63.8117 119.885 63.8117 121.751C63.7941 122.622 64.0013 123.483 64.4135 124.251C64.8257 125.019 65.4288 125.668 66.1647 126.134C67.5367 126.91 68.5451 126.409 68.5451 124.481Z" fill="white"/>
</g>
<path d="M85.8529 162.939L58.5707 147.161C58.2572 146.942 57.8935 146.806 57.5133 146.765C57.1332 146.724 56.7489 146.78 56.3961 146.927C56.3215 146.962 56.2503 147.003 56.1834 147.051L50.2495 150.529H50.2907C49.5429 150.954 49.0696 151.942 49.0696 153.348V183.683C49.0696 186.256 50.6268 189.233 52.5545 190.344L79.8367 206.122C80.1821 206.374 80.5944 206.519 81.0216 206.537C81.4488 206.555 81.8719 206.447 82.2377 206.225L82.1897 206.266L88.0824 202.802C88.8507 202.397 89.3378 201.43 89.3378 199.955V169.593C89.3378 167.027 87.808 164.05 85.8529 162.939Z" fill="#265073"/>
<path d="M88.3637 165.813C87.8136 164.638 86.9434 163.642 85.8529 162.939L58.5707 147.161C58.2572 146.942 57.8935 146.806 57.5133 146.765C57.1332 146.724 56.7489 146.78 56.3961 146.927C56.3215 146.962 56.2503 147.003 56.1834 147.051L50.2495 150.529C50.6117 150.342 51.0185 150.258 51.4252 150.287C51.8318 150.316 52.2226 150.457 52.5545 150.693L79.8367 166.471C80.9645 167.209 81.8573 168.254 82.4092 169.483L88.3637 165.813Z" fill="#265073"/>
<path d="M83.3216 203.461C83.3216 204.833 82.8826 205.787 82.1897 206.239L88.0824 202.775C88.8508 202.37 89.3378 201.403 89.3378 199.928V169.593C89.3087 168.275 88.9754 166.982 88.3637 165.813L82.4092 169.477C82.9808 170.61 83.2925 171.857 83.3216 173.126V203.461Z" fill="#265073"/>
<path opacity="0.3" d="M88.3637 165.813C87.8136 164.638 86.9434 163.642 85.8529 162.939L58.5707 147.161C58.2572 146.942 57.8935 146.806 57.5133 146.765C57.1332 146.724 56.7489 146.78 56.3961 146.927C56.3215 146.962 56.2503 147.003 56.1834 147.051L50.2495 150.529C50.6117 150.342 51.0185 150.258 51.4252 150.287C51.8318 150.316 52.2226 150.457 52.5545 150.693L79.8367 166.471C80.9645 167.209 81.8573 168.254 82.4092 169.483L88.3637 165.813Z" fill="black"/>
<path opacity="0.6" d="M83.3216 203.461C83.3216 204.833 82.8826 205.787 82.1897 206.239L88.0824 202.775C88.8508 202.37 89.3378 201.403 89.3378 199.928V169.593C89.3087 168.275 88.9754 166.982 88.3637 165.813L82.4092 169.477C82.9808 170.61 83.2925 171.857 83.3216 173.126V203.461Z" fill="black"/>
<path d="M63.1464 176.501L56.5676 165.813V180.295L63.1464 176.501Z" fill="#265073"/>
<path d="M69.2585 179.581L75.8236 190.948V176.487L69.2585 179.581Z" fill="#265073"/>
<path d="M57.5623 165.326L64.3194 176.302C64.348 176.326 64.3733 176.354 64.3948 176.384C64.4008 176.412 64.4008 176.44 64.3948 176.467L66.4048 179.732L68.1061 178.93C68.1326 178.901 68.1625 178.875 68.1953 178.854C68.2623 178.815 68.3374 178.791 68.4148 178.785L75.2748 175.568L57.5623 165.326Z" fill="#265073"/>
<path d="M68.264 180.047L66.4255 180.912C66.3546 180.945 66.2772 180.961 66.1991 180.96C66.1044 180.961 66.0111 180.937 65.9281 180.892C65.8452 180.846 65.7755 180.78 65.7258 180.699L63.7158 177.434L57.1165 181.248L74.877 191.497L68.264 180.047Z" fill="#265073"/>
<g opacity="0.9">
<path d="M63.1461 176.501L56.5674 165.813V180.295L63.1461 176.501Z" fill="white"/>
<path d="M69.2583 179.581L75.8233 190.948V176.487L69.2583 179.581Z" fill="white"/>
<path d="M57.562 165.326L64.3191 176.302C64.3477 176.326 64.3731 176.354 64.3946 176.384C64.4005 176.412 64.4005 176.44 64.3946 176.467L66.4046 179.732L68.1058 178.93C68.1323 178.901 68.1623 178.875 68.195 178.854C68.2621 178.815 68.3371 178.791 68.4145 178.785L75.2745 175.568L57.562 165.326Z" fill="white"/>
<path d="M68.2637 180.047L66.4252 180.912C66.3544 180.945 66.277 180.961 66.1988 180.96C66.1042 180.961 66.0108 180.937 65.9279 180.892C65.8449 180.846 65.7752 180.78 65.7255 180.699L63.7155 177.434L57.1162 181.248L74.8768 191.497L68.2637 180.047Z" fill="white"/>
</g>
<path d="M85.8529 54.88L58.5707 39.102C58.2572 38.8832 57.8935 38.7471 57.5133 38.7063C57.1332 38.6655 56.7489 38.7214 56.3961 38.8688C56.3215 38.9032 56.2503 38.9445 56.1834 38.9922L50.2495 42.4703H50.2907C49.5429 42.8887 49.0696 43.8834 49.0696 45.2897V75.6246C49.0696 78.1903 50.6268 81.1744 52.5545 82.2857L79.8367 98.0637C80.1821 98.3158 80.5944 98.46 81.0216 98.4783C81.4488 98.4966 81.8719 98.3882 82.2377 98.1666L82.1897 98.2009L88.0824 94.7709C88.8507 94.3662 89.3378 93.3989 89.3378 91.924V61.5136C89.3378 58.948 87.808 55.9639 85.8529 54.88Z" fill="#265073"/>
<path d="M88.3637 57.7338C87.8137 56.5568 86.9436 55.5583 85.8529 54.8526L58.5707 39.102C58.2572 38.8832 57.8935 38.7471 57.5133 38.7063C57.1332 38.6655 56.7489 38.7214 56.3961 38.8688C56.3215 38.9032 56.2503 38.9445 56.1834 38.9922L50.2495 42.4703C50.6117 42.283 51.0185 42.1993 51.4252 42.2283C51.8318 42.2574 52.2226 42.3981 52.5545 42.6349L79.8367 58.4129C80.9645 59.1501 81.8573 60.1953 82.4092 61.4244L88.3637 57.7338Z" fill="#265073"/>
<path d="M83.3216 95.3536C83.3216 96.7256 82.8826 97.6792 82.1897 98.0976L88.0824 94.6676C88.8508 94.2629 89.3378 93.2956 89.3378 91.8207V61.5133C89.3087 60.1951 88.9754 58.9014 88.3637 57.7334L82.4092 61.3966C82.9808 62.5302 83.2925 63.777 83.3216 65.0462V95.3536Z" fill="#265073"/>
<path opacity="0.3" d="M88.3637 57.7338C87.8137 56.5568 86.9436 55.5583 85.8529 54.8526L58.5707 39.102C58.2572 38.8832 57.8935 38.7471 57.5133 38.7063C57.1332 38.6655 56.7489 38.7214 56.3961 38.8688C56.3215 38.9032 56.2503 38.9445 56.1834 38.9922L50.2495 42.4703C50.6117 42.283 51.0185 42.1993 51.4252 42.2283C51.8318 42.2574 52.2226 42.3981 52.5545 42.6349L79.8367 58.4129C80.9645 59.1501 81.8573 60.1953 82.4092 61.4244L88.3637 57.7338Z" fill="black"/>
<path opacity="0.6" d="M83.3216 95.3536C83.3216 96.7256 82.8826 97.6792 82.1897 98.0976L88.0824 94.6676C88.8508 94.2629 89.3378 93.2956 89.3378 91.8207V61.5133C89.3087 60.1951 88.9754 58.9014 88.3637 57.7334L82.4092 61.3966C82.9808 62.5302 83.2925 63.777 83.3216 65.0462V95.3536Z" fill="black"/>
<path d="M74.3968 82.3199C73.3472 80.5912 72.2908 78.8899 71.2412 77.1475C71.0747 76.8174 70.842 76.5252 70.5575 76.2892C70.2731 76.0531 69.943 75.8782 69.5879 75.7755C69.0803 75.6726 68.5726 75.5559 68.0513 75.405C67.8656 75.3276 67.7094 75.193 67.6054 75.0209C65.8879 72.0814 64.5225 68.95 63.5374 65.6913C63.5165 65.6216 63.5105 65.5483 63.52 65.4761C63.5294 65.404 63.5541 65.3347 63.5923 65.2728C63.9147 64.9504 64.2783 64.6554 64.6076 64.3673C64.9368 64.0792 65.1083 63.4137 64.8682 62.5494C64.3606 60.7178 63.8735 58.8861 63.3659 57.0614C63.2677 56.5429 63.0346 56.0594 62.6902 55.6596C62.3458 55.2598 61.9022 54.9578 61.4039 54.7839C60.2977 54.4763 59.1233 54.5194 58.0425 54.9073C57.6241 55.0651 57.4046 55.4424 57.3977 56.0941C57.5761 57.3495 57.6927 58.5912 57.9328 59.8671C59.6249 69.0687 63.6952 77.5293 70.1436 85.2491C70.3119 85.5051 70.5381 85.7179 70.8038 85.8705C71.0696 86.023 71.3674 86.1109 71.6734 86.1272C72.7409 86.1018 73.7666 85.7066 74.5751 85.009C75.1857 84.4602 75.1239 83.4861 74.3968 82.3199Z" fill="#265073"/>
<path d="M74.3143 72.97C74.1708 70.9968 73.627 69.0735 72.716 67.3174C72.0358 65.9455 71.1702 64.6736 70.1435 63.5375C69.8759 63.2357 69.6495 63.1396 69.5123 63.366C69.3751 63.5924 69.5123 63.9148 69.773 64.2098L70.0406 64.5185C71.9367 66.7072 73.1316 69.415 73.4706 72.2909C73.4672 72.5006 73.4879 72.7101 73.5323 72.9151C73.6185 73.1511 73.7568 73.3645 73.937 73.5394C74.0811 73.6423 74.2457 73.5394 74.3624 73.5394C74.3212 73.2581 74.3281 73.1141 74.3143 72.97Z" fill="#265073"/>
<path d="M68.0992 67.3381C68.9607 68.2856 69.4841 69.4917 69.5878 70.7681C69.633 70.9621 69.7046 71.1491 69.8005 71.3237C70.219 71.6667 70.4248 71.5501 70.4248 71.1179C70.2781 69.4814 69.6012 67.9375 68.4971 66.7207C68.2364 66.4531 68.0238 66.3708 67.9003 66.5972C67.8559 66.7265 67.8511 66.866 67.8865 66.998C67.922 67.1301 67.996 67.2485 68.0992 67.3381Z" fill="#265073"/>
<g opacity="0.9">
<path d="M74.3965 82.3199C73.347 80.5912 72.2905 78.8899 71.2409 77.1475C71.0745 76.8174 70.8417 76.5252 70.5573 76.2892C70.2728 76.0531 69.9428 75.8782 69.5877 75.7755C69.08 75.6726 68.5724 75.5559 68.051 75.405C67.8654 75.3276 67.7092 75.193 67.6051 75.0209C65.8877 72.0814 64.5223 68.95 63.5372 65.6913C63.5162 65.6216 63.5103 65.5483 63.5197 65.4761C63.5292 65.404 63.5538 65.3347 63.592 65.2728C63.9145 64.9504 64.278 64.6554 64.6073 64.3673C64.9366 64.0792 65.1081 63.4137 64.868 62.5494C64.3604 60.7178 63.8733 58.8861 63.3657 57.0614C63.2674 56.5429 63.0344 56.0594 62.69 55.6596C62.3456 55.2598 61.9019 54.9578 61.4037 54.7839C60.2974 54.4763 59.123 54.5194 58.0423 54.9073C57.6238 55.0651 57.4043 55.4424 57.3975 56.0941C57.5758 57.3495 57.6924 58.5912 57.9325 59.8671C59.6247 69.0687 63.6949 77.5293 70.1433 85.2491C70.3117 85.5051 70.5379 85.7179 70.8036 85.8705C71.0693 86.023 71.3672 86.1109 71.6731 86.1272C72.7407 86.1018 73.7663 85.7066 74.5749 85.009C75.1854 84.4602 75.1237 83.4861 74.3965 82.3199Z" fill="white"/>
<path d="M74.3143 72.97C74.1708 70.9968 73.627 69.0735 72.716 67.3174C72.0358 65.9455 71.1702 64.6736 70.1435 63.5375C69.8759 63.2357 69.6495 63.1396 69.5123 63.366C69.3751 63.5924 69.5123 63.9148 69.773 64.2098L70.0406 64.5185C71.9367 66.7072 73.1316 69.415 73.4706 72.2909C73.4672 72.5006 73.4879 72.7101 73.5323 72.9151C73.6185 73.1511 73.7568 73.3645 73.937 73.5394C74.0811 73.6423 74.2457 73.5394 74.3624 73.5394C74.3212 73.2581 74.3281 73.1141 74.3143 72.97Z" fill="white"/>
<path d="M68.099 67.3381C68.9604 68.2856 69.4839 69.4917 69.5876 70.7681C69.6328 70.9621 69.7043 71.1491 69.8002 71.3237C70.2187 71.6667 70.4245 71.5501 70.4245 71.1179C70.2778 69.4814 69.601 67.9375 68.4968 66.7207C68.2362 66.4531 68.0235 66.3708 67.9 66.5972C67.8556 66.7265 67.8508 66.866 67.8863 66.998C67.9217 67.1301 67.9958 67.2485 68.099 67.3381Z" fill="white"/>
</g>
<path d="M225.831 36.6868L232.259 40.3432V38.0657C232.259 37.9079 232.259 37.7433 232.259 37.5855C232.259 37.4277 232.259 37.2768 232.259 37.1259V37.0436C232.492 34.032 234.777 32.8727 237.562 34.4848C238.823 35.2603 239.903 36.2965 240.731 37.5238C241.355 33.4078 244.696 31.9534 248.737 34.279C253.223 36.8721 256.859 43.197 256.859 48.3557V53.2263C256.853 53.6159 256.949 54.0004 257.138 54.3411C257.327 54.6818 257.602 54.9669 257.936 55.1677L261.723 57.3835C262.54 57.868 263.217 58.5564 263.689 59.3813C264.16 60.2062 264.409 61.1393 264.412 62.0894C264.412 62.4836 264.308 62.8708 264.111 63.2121C263.914 63.5534 263.63 63.8368 263.289 64.0336C262.947 64.2304 262.56 64.3338 262.166 64.3333C261.772 64.3328 261.385 64.2285 261.044 64.0308L225.927 43.7321C224.996 43.191 224.222 42.4157 223.683 41.483C223.144 40.5503 222.858 39.4928 222.854 38.4156C222.854 38.0669 222.945 37.7242 223.119 37.4219C223.293 37.1196 223.543 36.8683 223.844 36.6932C224.146 36.5181 224.488 36.4254 224.837 36.4243C225.186 36.4231 225.529 36.5137 225.831 36.6868Z" fill="#E6E6E6"/>
<path d="M274.832 35.7338L279.504 38.416V36.7422C279.504 36.6256 279.504 36.5089 279.504 36.3923C279.504 36.2757 279.504 36.1659 279.504 36.0562V36.015C279.675 33.8267 281.336 32.9829 283.359 34.156C284.276 34.7175 285.061 35.4682 285.664 36.358C286.124 33.3808 288.552 32.3038 291.488 33.9982C294.754 35.8847 297.395 40.4672 297.395 44.2333V47.7799C297.397 48.0579 297.472 48.3306 297.611 48.5711C297.751 48.8116 297.95 49.0117 298.191 49.1519L300.935 50.764C301.532 51.1151 302.026 51.6166 302.369 52.2184C302.712 52.8202 302.892 53.5013 302.89 54.194C302.889 54.4777 302.815 54.7564 302.674 55.0026C302.533 55.2488 302.33 55.4541 302.086 55.5981C301.841 55.7421 301.564 55.82 301.28 55.824C300.996 55.828 300.716 55.758 300.468 55.6209L274.901 40.8582C274.223 40.4662 273.661 39.9031 273.27 39.2253C272.878 38.5474 272.672 37.7787 272.671 36.996C272.671 36.7427 272.737 36.4937 272.863 36.2738C272.989 36.054 273.17 35.8711 273.389 35.7433C273.608 35.6155 273.856 35.5474 274.109 35.5457C274.363 35.5441 274.612 35.6089 274.832 35.7338Z" fill="#E6E6E6"/>
</svg>
