<svg width="128" height="45" viewBox="0 0 128 45" fill="none" xmlns="http://www.w3.org/2000/svg">
<g id="Frame 34462">
<rect width="128" height="45" rx="6" fill="white"/>
<g id="Group 34188">
<g id="Group">
<g id="Group_2">
<path id="Vector" d="M47.7518 28.5876H43.3458L42.2694 31.5145H40.3418L44.6476 20.5322H46.4751L50.881 31.5145H48.8533L47.7518 28.5876ZM43.8966 27.0866H47.176L45.9994 23.9345C45.8492 23.5092 45.674 23.0089 45.5238 22.4835C45.3736 22.9588 45.2234 23.4342 45.0732 23.9095L43.8966 27.0866Z" fill="black"/>
<path id="Vector_2" d="M51.6575 25.3356C51.6575 24.7352 51.6325 24.0598 51.6074 23.3343H53.3598C53.4349 23.6845 53.4599 24.0097 53.485 24.36C54.2109 23.5594 55.037 23.1592 55.9883 23.1592C56.5391 23.1592 57.0397 23.2843 57.5154 23.5594C57.991 23.8346 58.3665 24.2599 58.6419 24.8603C58.9173 25.4607 59.0675 26.2112 59.0675 27.1118C59.0675 28.0624 58.8922 28.888 58.5668 29.5634C58.2414 30.2389 57.7908 30.7643 57.19 31.0895C56.6142 31.4397 55.9383 31.6148 55.1622 31.6148C54.6115 31.6148 54.0607 31.5148 53.51 31.3396V34.7669L51.6325 34.917V25.3356H51.6575ZM56.5891 29.5134C56.9646 29.0131 57.1649 28.2626 57.1649 27.2619C57.1649 26.3363 57.0147 25.6859 56.6893 25.2856C56.3638 24.8853 55.9633 24.6602 55.4376 24.6602C55.0621 24.6602 54.7366 24.7352 54.4362 24.9103C54.1358 25.0855 53.8354 25.3106 53.5601 25.6108V29.9887C53.7353 30.0888 53.9606 30.1639 54.2109 30.2139C54.4613 30.2639 54.7116 30.2889 54.9369 30.2889C55.6379 30.2889 56.1886 30.0388 56.5891 29.5134Z" fill="black"/>
<path id="Vector_3" d="M60.1936 25.3356C60.1936 24.7352 60.1686 24.0598 60.1436 23.3343H61.8959C61.971 23.6845 61.9961 24.0097 62.0211 24.36C62.7471 23.5594 63.5732 23.1592 64.5245 23.1592C65.0752 23.1592 65.5759 23.2843 66.0515 23.5594C66.5272 23.8346 66.9027 24.2599 67.178 24.8603C67.4534 25.4607 67.6036 26.2112 67.6036 27.1118C67.6036 28.0624 67.4284 28.888 67.1029 29.5634C66.7775 30.2389 66.3269 30.7643 65.7261 31.0895C65.1503 31.4397 64.4744 31.6148 63.6983 31.6148C63.1476 31.6148 62.5969 31.5148 62.0461 31.3396V34.7669L60.1686 34.917V25.3356H60.1936ZM65.1253 29.5134C65.5008 29.0131 65.701 28.2626 65.701 27.2619C65.701 26.3363 65.5508 25.6859 65.2254 25.2856C64.9 24.8853 64.4994 24.6602 63.9737 24.6602C63.5982 24.6602 63.2728 24.7352 62.9724 24.9103C62.672 25.0855 62.3716 25.3106 62.0962 25.6108V29.9887C62.2714 30.0888 62.4967 30.1639 62.7471 30.2139C62.9974 30.2639 63.2477 30.2889 63.473 30.2889C64.174 30.2889 64.7498 30.0388 65.1253 29.5134Z" fill="black"/>
<path id="Vector_4" d="M71.0327 30.9893C70.2316 30.539 69.6057 29.9136 69.1802 29.063C68.7546 28.2374 68.5293 27.2368 68.5293 26.111C68.5293 24.8852 68.7796 23.8345 69.2803 22.9839C69.781 22.1334 70.4569 21.4829 71.3331 21.0577C72.1842 20.6324 73.1605 20.4072 74.237 20.4072C74.8628 20.4072 75.4636 20.4823 76.0394 20.6074C76.6152 20.7575 77.1409 20.9326 77.6416 21.1827L77.1659 22.6337C76.1646 22.1584 75.2133 21.9332 74.3121 21.9332C73.5611 21.9332 72.8852 22.1084 72.3094 22.4336C71.7336 22.7588 71.283 23.2341 70.9826 23.8595C70.6572 24.4849 70.507 25.2605 70.507 26.136C70.507 26.9116 70.6321 27.612 70.8825 28.2124C71.1328 28.8128 71.5083 29.2881 72.034 29.6634C72.5597 30.0136 73.2356 30.1887 74.0367 30.1887C74.4122 30.1887 74.7627 30.1637 75.1382 30.0887C75.5137 30.0136 75.8392 29.9386 76.1646 29.8135V27.587H73.6362V26.136H77.9921V30.7641C77.3662 31.0643 76.7153 31.2895 76.0144 31.4396C75.3134 31.5897 74.6375 31.6647 73.9616 31.6647C72.8101 31.6647 71.8588 31.4396 71.0327 30.9893Z" fill="black"/>
<path id="Vector_5" d="M84.5766 31.5145C84.5015 31.1893 84.4765 30.8391 84.4514 30.4388C84.151 30.789 83.8005 31.0642 83.3249 31.3144C82.8743 31.5646 82.3486 31.6646 81.7478 31.6646C81.2721 31.6646 80.8466 31.5646 80.4711 31.3894C80.0955 31.2143 79.7701 30.9391 79.5448 30.5639C79.3195 30.1886 79.1943 29.7383 79.1943 29.213C79.1943 28.4125 79.4697 27.787 80.0455 27.3117C80.6213 26.8364 81.5725 26.6113 82.8993 26.6113C83.4 26.6113 83.9007 26.6363 84.3763 26.7113V26.5612C84.3763 25.8357 84.2261 25.3354 83.9257 25.0352C83.6253 24.735 83.1747 24.5849 82.5989 24.5849C82.1984 24.5849 81.7728 24.6349 81.3222 24.76C80.8716 24.8851 80.4711 25.0102 80.1206 25.1853L79.8202 23.8344C80.1456 23.6843 80.5962 23.5342 81.147 23.4091C81.6977 23.284 82.2735 23.209 82.8743 23.209C83.5752 23.209 84.1761 23.309 84.6767 23.5342C85.1774 23.7594 85.5529 24.1096 85.8283 24.6349C86.1037 25.1603 86.2538 25.8608 86.2538 26.7363V29.9885C86.2538 30.3387 86.2789 30.8391 86.3039 31.5145H84.5766ZM83.4751 29.9885C83.8756 29.8134 84.1761 29.5632 84.4264 29.288V27.762C83.9257 27.712 83.5001 27.687 83.1747 27.687C82.3987 27.687 81.8729 27.8121 81.5725 28.0622C81.2721 28.3124 81.1219 28.6376 81.1219 29.0629C81.1219 29.4632 81.2221 29.7634 81.4474 29.9635C81.6727 30.1636 81.948 30.2637 82.3236 30.2637C82.6991 30.2887 83.0746 30.1886 83.4751 29.9885Z" fill="black"/>
<path id="Vector_6" d="M87.7305 29.5634V19.9069L89.583 19.7568V29.2382C89.583 29.5884 89.633 29.8386 89.7582 29.9887C89.8834 30.1388 90.0586 30.2138 90.334 30.2138C90.4592 30.2138 90.6094 30.1888 90.8347 30.1388L91.06 31.4897C90.8847 31.5647 90.6594 31.6147 90.4091 31.6648C90.1587 31.7148 89.9084 31.7398 89.6831 31.7398C88.3814 31.6648 87.7305 30.9643 87.7305 29.5634Z" fill="black"/>
<path id="Vector_7" d="M92.3867 29.5634V19.9069L94.2392 19.7568V29.2382C94.2392 29.5884 94.2893 29.8386 94.4144 29.9887C94.5396 30.1388 94.7149 30.2138 94.9902 30.2138C95.1154 30.2138 95.2656 30.1888 95.4909 30.1388L95.7162 31.4897C95.541 31.5647 95.3157 31.6147 95.0653 31.6648C94.815 31.7148 94.5647 31.7398 94.3394 31.7398C93.0376 31.6648 92.3867 30.9643 92.3867 29.5634Z" fill="black"/>
<path id="Vector_8" d="M103.377 27.6622H98.0198C98.0949 29.3633 98.921 30.2389 100.473 30.2389C100.849 30.2389 101.249 30.1889 101.65 30.0888C102.05 29.9887 102.426 29.8637 102.801 29.7136L103.202 30.9894C102.275 31.4397 101.249 31.6649 100.123 31.6649C99.2464 31.6649 98.5204 31.4897 97.9196 31.1645C97.3188 30.8393 96.8682 30.364 96.5678 29.7386C96.2674 29.1131 96.1172 28.3877 96.1172 27.5121C96.1172 26.6115 96.2674 25.836 96.5928 25.1855C96.9183 24.5351 97.3438 24.0348 97.9196 23.6845C98.4954 23.3343 99.1463 23.1592 99.8973 23.1592C100.673 23.1592 101.324 23.3343 101.825 23.7095C102.351 24.0598 102.726 24.5601 102.976 25.1605C103.227 25.7609 103.352 26.4364 103.352 27.1618V27.6622H103.377ZM101.55 26.4864C101.524 25.836 101.349 25.3356 101.049 25.0104C100.748 24.6852 100.373 24.5101 99.8722 24.5101C99.3966 24.5101 98.9961 24.6852 98.6957 25.0104C98.3702 25.3356 98.17 25.836 98.0698 26.4614H101.55V26.4864Z" fill="black"/>
<path id="Vector_9" d="M104.779 25.3854C104.779 24.9351 104.754 24.2597 104.729 23.3341H106.481C106.506 23.5592 106.531 23.8344 106.556 24.1596C106.581 24.4848 106.606 24.735 106.606 24.9351C106.831 24.5849 107.032 24.2847 107.257 24.0345C107.457 23.7844 107.708 23.5842 107.983 23.4341C108.258 23.284 108.584 23.209 108.934 23.209C109.235 23.209 109.46 23.234 109.685 23.309L109.46 24.9351C109.285 24.8851 109.084 24.8601 108.859 24.8601C108.408 24.8601 108.033 24.9602 107.708 25.1853C107.382 25.4105 107.032 25.7857 106.656 26.286V31.5395H104.804V25.3854H104.779Z" fill="black"/>
<path id="Vector_10" d="M110.736 34.8667C110.461 34.8166 110.236 34.7666 110.061 34.6916L110.411 33.3407C110.536 33.3657 110.686 33.4157 110.887 33.4407C111.087 33.4657 111.262 33.4908 111.437 33.4908C112.264 33.4908 112.889 32.9654 113.29 31.8897L113.415 31.5895L110.411 23.359H112.414L113.941 27.9621C114.191 28.7376 114.341 29.363 114.416 29.7633C114.567 29.1629 114.717 28.5875 114.917 27.9871L116.444 23.334H118.322L115.318 31.6145C115.042 32.39 114.717 33.0405 114.391 33.5158C114.066 33.9911 113.665 34.3413 113.24 34.5915C112.789 34.8166 112.264 34.9417 111.613 34.9417C111.312 34.9417 111.012 34.9167 110.736 34.8667Z" fill="black"/>
</g>
<g id="Group_3">
<path id="Vector_11" d="M40.3418 10.1006H43.6713L43.5711 10.9011H41.3181V12.4522H43.446V13.2027H41.3181V14.9288H43.6963L43.6212 15.7293H40.3418V10.1006Z" fill="black"/>
<path id="Vector_12" d="M45.9745 12.8774L44.2221 10.1006H45.3236L46.5252 12.1269L47.7769 10.1006H48.8534L47.101 12.8274L48.9785 15.7544H47.852L46.5002 13.5279L45.1233 15.7544H44.0469L45.9745 12.8774Z" fill="black"/>
<path id="Vector_13" d="M49.7041 10.1006H51.2312C51.9571 10.1006 52.5079 10.2507 52.8834 10.5509C53.2589 10.8511 53.4592 11.2764 53.4592 11.8267C53.4592 12.202 53.3841 12.5272 53.2088 12.8024C53.0336 13.0776 52.8083 13.3027 52.4828 13.4528C52.1824 13.6029 51.832 13.678 51.4314 13.678C51.2061 13.678 50.9558 13.653 50.6804 13.6029V15.7544H49.7041V10.1006ZM52.1574 12.6273C52.3577 12.4271 52.4578 12.177 52.4578 11.8267C52.4578 11.4765 52.3577 11.2263 52.1324 11.0762C51.9321 10.9261 51.6067 10.8511 51.2061 10.8511H50.6804V12.8524C50.9308 12.9025 51.106 12.9025 51.2312 12.9025C51.6567 12.9025 51.9571 12.8024 52.1574 12.6273Z" fill="black"/>
<path id="Vector_14" d="M54.4355 10.1006H55.4119V14.9288H57.765L57.6899 15.7544H54.4606V10.1006H54.4355Z" fill="black"/>
<path id="Vector_15" d="M59.2425 15.4787C58.817 15.2535 58.5166 14.9033 58.2913 14.478C58.066 14.0527 57.9658 13.5524 57.9658 12.977C57.9658 12.3766 58.091 11.8512 58.3163 11.4009C58.5416 10.9506 58.8921 10.6004 59.3176 10.3753C59.7683 10.1251 60.2689 10 60.8697 10C61.4455 10 61.9212 10.1251 62.3467 10.3502C62.7473 10.5754 63.0727 10.9256 63.298 11.3509C63.5233 11.7762 63.6234 12.2765 63.6234 12.8269C63.6234 13.4273 63.4983 13.9526 63.273 14.4029C63.0477 14.8532 62.6972 15.2035 62.2716 15.4286C61.8461 15.6788 61.3203 15.8039 60.7446 15.8039C60.1438 15.8289 59.6431 15.7038 59.2425 15.4787ZM61.771 14.7782C62.0463 14.6031 62.2466 14.3529 62.3968 14.0277C62.522 13.7025 62.5971 13.3272 62.5971 12.927C62.5971 12.5267 62.547 12.1514 62.4218 11.8512C62.2967 11.526 62.1214 11.2759 61.8461 11.1007C61.5707 10.9006 61.2452 10.8256 60.8197 10.8256C60.4191 10.8256 60.0937 10.9256 59.8183 11.1007C59.5429 11.3009 59.3427 11.551 59.1925 11.8763C59.0423 12.2015 58.9922 12.5517 58.9922 12.952C58.9922 13.3522 59.0673 13.7275 59.1925 14.0527C59.3176 14.3779 59.5179 14.6281 59.7933 14.8282C60.0687 15.0284 60.3941 15.1034 60.7946 15.1034C61.1701 15.0534 61.4956 14.9783 61.771 14.7782Z" fill="black"/>
<path id="Vector_16" d="M64.6992 10.1006H66.4766C67.1275 10.1006 67.6031 10.2257 67.9536 10.4758C68.3041 10.726 68.4543 11.1013 68.4543 11.5766C68.4543 11.8768 68.4042 12.152 68.279 12.3771C68.1539 12.6023 68.0037 12.8024 67.8284 12.9275C67.6532 13.0776 67.478 13.1776 67.2777 13.2527L69.0301 15.7544H67.8785L66.4015 13.5029H65.6755V15.7544H64.6992V10.1006ZM66.2263 12.7774C66.4516 12.7774 66.6769 12.7273 66.8521 12.6273C67.0274 12.5272 67.1776 12.4021 67.2777 12.227C67.3778 12.0519 67.4279 11.8518 67.4279 11.6516C67.4279 11.3764 67.3278 11.1513 67.1525 11.0262C66.9773 10.9011 66.7019 10.8261 66.3765 10.8261H65.6755V12.7524H66.2263V12.7774Z" fill="black"/>
<path id="Vector_17" d="M69.7812 10.1006H73.1107L73.0106 10.9011H70.7576V12.4522H72.8854V13.2027H70.7576V14.9288H73.1358L73.0607 15.7293H69.7812V10.1006Z" fill="black"/>
<path id="Vector_18" d="M76.7412 10.1006H77.7175V15.7544H76.7412V10.1006Z" fill="black"/>
<path id="Vector_19" d="M80.3207 10.9007H78.5684L78.6435 10.0752H83.0494L82.9493 10.9007H81.272V15.754H80.2957V10.9007H80.3207Z" fill="black"/>
<path id="Vector_20" d="M87.305 15.4787C86.8795 15.2535 86.5791 14.9033 86.3538 14.478C86.1285 14.0527 86.0283 13.5524 86.0283 12.977C86.0283 12.3766 86.1535 11.8512 86.3788 11.4009C86.6041 10.9506 86.9546 10.6004 87.3801 10.3753C87.8307 10.1251 88.3314 10 88.9322 10C89.508 10 89.9837 10.1251 90.4092 10.3502C90.8098 10.5754 91.1352 10.9256 91.3605 11.3509C91.5858 11.7762 91.6859 12.2765 91.6859 12.8269C91.6859 13.4273 91.5608 13.9526 91.3355 14.4029C91.1102 14.8532 90.7597 15.2035 90.3341 15.4286C89.9086 15.6788 89.3828 15.8039 88.8071 15.8039C88.2063 15.8289 87.7056 15.7038 87.305 15.4787ZM89.8335 14.7782C90.1088 14.6031 90.3091 14.3529 90.4593 14.0277C90.5845 13.7025 90.6596 13.3272 90.6596 12.927C90.6596 12.5267 90.6095 12.1514 90.4843 11.8512C90.3592 11.526 90.1839 11.2759 89.9086 11.1007C89.6332 10.9006 89.3077 10.8256 88.8822 10.8256C88.4816 10.8256 88.1562 10.9256 87.8808 11.1007C87.6054 11.3009 87.4052 11.551 87.255 11.8763C87.1048 12.2015 87.0547 12.5517 87.0547 12.952C87.0547 13.3522 87.1298 13.7275 87.255 14.0527C87.3801 14.3779 87.5804 14.6281 87.8558 14.8282C88.1312 15.0284 88.4566 15.1034 88.8571 15.1034C89.2076 15.0534 89.5581 14.9783 89.8335 14.7782Z" fill="black"/>
<path id="Vector_21" d="M92.7627 10.1006H93.8892L96.693 14.4785C96.668 14.0532 96.668 13.678 96.668 13.3277V10.1006H97.5692V15.7544H96.4927L93.6389 11.3014C93.6639 11.8017 93.6889 12.252 93.6889 12.6523V15.7544H92.7877V10.1006H92.7627Z" fill="black"/>
</g>
</g>
<g id="Group_4">
<g id="&#229;&#189;&#162;&#231;&#138;&#182; 1 &#230;&#139;&#183;&#232;&#180;&#157; 25 7">
<g id="Group_5">
<path id="Vector_22" fill-rule="evenodd" clip-rule="evenodd" d="M26.573 10.125H16.184C11.2774 10.125 9.5 11.9262 9.5 16.8045V27.1864C9.5 32.0896 11.3024 33.8658 16.184 33.8658H26.573C31.4796 33.8658 33.257 32.0646 33.257 27.1864V16.8045C33.2821 11.9262 31.4796 10.125 26.573 10.125Z" fill="#C8102E"/>
</g>
</g>
<g id="Group_6">
<path id="Vector_23" d="M14.2061 22.0078H14.8319V25.1099H14.2061V23.859H12.7792V25.1099H12.1533V22.0078H12.7792V23.2586H14.2061V22.0078ZM17.7609 23.784C17.7609 24.2843 17.5105 24.5595 17.0599 24.5595C16.6093 24.5595 16.359 24.2843 16.359 23.759V22.0078H15.7331V23.784C15.7331 24.6596 16.2088 25.1599 17.0599 25.1599C17.9111 25.1599 18.4118 24.6596 18.4118 23.759V22.0078H17.7859V23.784H17.7609ZM25.0457 24.1342L24.3448 22.0078H23.819L23.1181 24.1342L22.4422 22.0078H21.7663L22.8427 25.1099H23.3684L24.0694 23.0585L24.7703 25.1099H25.296L26.3725 22.0078H25.7216L25.0457 24.1342ZM27.524 23.784H28.6756V23.2086H27.524V22.5832H29.2013V22.0078H26.9232V25.1099H29.2764V24.5345H27.5491V23.784H27.524ZM30.0024 25.1099H30.6282V22.0078H30.0024V25.1099ZM19.6384 24.4594L19.363 25.1099H18.7122L20.064 22.0078H20.6147L21.9665 25.1099H21.3157L21.0653 24.4594H19.6384ZM19.8637 23.9091H20.815L20.3394 22.8083L19.8637 23.9091Z" fill="white"/>
<path id="Vector_24" d="M21.3909 18.0552C19.2129 18.0552 17.4355 16.279 17.4355 14.1025H17.9863C17.9863 15.9788 19.5133 17.5048 21.3909 17.5048C23.2684 17.5048 24.7955 15.9788 24.7955 14.1025H25.3462C25.3462 16.279 23.5688 18.0552 21.3909 18.0552Z" fill="white"/>
</g>
</g>
</g>
</g>
</svg>
