<svg width="128" height="45" viewBox="0 0 128 45" fill="none" xmlns="http://www.w3.org/2000/svg">
<g id="Frame 34464">
<rect width="128" height="45" rx="6" fill="white"/>
<g id="Group 34187">
<g id="Group 34185">
<g id="Group">
<path id="Vector" d="M48.4161 28.2833H44.0847L43.0445 31.43H41.21L45.3125 19.7881H47.2186L51.3212 31.43H49.4553L48.4161 28.2833ZM44.5333 26.8313H47.9666L46.2741 21.7244H46.2267L44.5333 26.8313Z" fill="black"/>
<path id="Vector_2" d="M60.1809 27.1863C60.1809 29.824 58.803 31.5186 56.7235 31.5186C56.1968 31.5468 55.6729 31.4225 55.2119 31.1599C54.7509 30.8973 54.3714 30.5069 54.1168 30.0336H54.0775V34.2377H52.377V22.9419H54.023V24.3537H54.0543C54.3205 23.8826 54.7064 23.4943 55.1709 23.2301C55.6354 22.9659 56.1612 22.8356 56.6922 22.8531C58.7949 22.8531 60.1809 24.556 60.1809 27.1863ZM58.433 27.1863C58.433 25.4679 57.5662 24.3381 56.2436 24.3381C54.9443 24.3381 54.0704 25.4917 54.0704 27.1863C54.0704 28.8965 54.9443 30.0419 56.2436 30.0419C57.5662 30.0419 58.433 28.9203 58.433 27.1863H58.433Z" fill="black"/>
<path id="Vector_3" d="M69.3005 27.1863C69.3005 29.824 67.9221 31.5186 65.8427 31.5186C65.3159 31.5468 64.792 31.4225 64.331 31.1599C63.87 30.8973 63.4905 30.5069 63.236 30.0336H63.1966V34.2377H61.4961V22.9419H63.1421V24.3537H63.1734C63.4396 23.8826 63.8256 23.4943 64.2901 23.2301C64.7546 22.9659 65.2803 22.8356 65.8114 22.8531C67.9141 22.8531 69.3005 24.556 69.3005 27.1863ZM67.5521 27.1863C67.5521 25.4679 66.6853 24.3381 65.3628 24.3381C64.0635 24.3381 63.1895 25.4917 63.1895 27.1863C63.1895 28.8965 64.0635 30.0419 65.3628 30.0419C66.6853 30.0419 67.5521 28.9203 67.5521 27.1863Z" fill="black"/>
<path id="Vector_4" d="M75.3258 28.186C75.4518 29.3405 76.5465 30.0985 78.0424 30.0985C79.4757 30.0985 80.5069 29.3405 80.5069 28.2995C80.5069 27.3959 79.885 26.8548 78.4123 26.484L76.9396 26.1205C74.8531 25.6042 73.8844 24.6044 73.8844 22.9821C73.8844 20.9734 75.593 19.5938 78.0182 19.5938C80.4203 19.5938 82.0663 20.9734 82.1217 22.9821H80.4051C80.3023 21.8203 79.3649 21.119 77.995 21.119C76.6251 21.119 75.6877 21.8286 75.6877 22.8613C75.6877 23.6843 76.2864 24.1686 77.751 24.5394L79.003 24.8543C81.3344 25.4192 82.3022 26.3787 82.3022 28.0816C82.3022 30.2596 80.6097 31.6237 77.9163 31.6237C75.3963 31.6237 73.6949 30.2917 73.585 28.1859L75.3258 28.186Z" fill="black"/>
<path id="Vector_5" d="M85.9737 20.9336V22.9423H87.5492V24.322H85.9737V29.0012C85.9737 29.7281 86.2892 30.0669 86.9817 30.0669C87.1688 30.0636 87.3555 30.0501 87.5411 30.0266V31.398C87.2298 31.4576 86.9133 31.4846 86.5966 31.4786C84.9193 31.4786 84.2651 30.8332 84.2651 29.187V24.322H83.0605V22.9423H84.2651V20.9336H85.9737Z" fill="black"/>
<path id="Vector_6" d="M88.4609 27.1866C88.4609 24.5161 89.9962 22.8379 92.3902 22.8379C94.7922 22.8379 96.3203 24.516 96.3203 27.1866C96.3203 29.8646 94.8002 31.5354 92.3902 31.5354C89.981 31.5354 88.4609 29.8646 88.4609 27.1866ZM94.5876 27.1866C94.5876 25.3547 93.7681 24.2734 92.3902 24.2734C91.0122 24.2734 90.1928 25.3629 90.1928 27.1866C90.1928 29.0259 91.0122 30.0989 92.3902 30.0989C93.7681 30.0989 94.5875 29.0259 94.5875 27.1866H94.5876Z" fill="black"/>
<path id="Vector_7" d="M97.7227 22.9419H99.3446V24.3865H99.3839C99.4937 23.9353 99.7517 23.5366 100.115 23.2573C100.477 22.9781 100.923 22.8353 101.377 22.853C101.573 22.8523 101.768 22.8741 101.959 22.918V24.5477C101.712 24.4702 101.454 24.4347 101.195 24.4424C100.948 24.4321 100.702 24.4768 100.473 24.5732C100.245 24.6697 100.039 24.8157 99.8708 25.0012C99.7024 25.1867 99.5753 25.4074 99.498 25.648C99.4207 25.8886 99.3952 26.1435 99.4232 26.3952V31.4297H97.7227L97.7227 22.9419Z" fill="black"/>
<path id="Vector_8" d="M109.799 28.9371C109.571 30.478 108.106 31.5354 106.232 31.5354C103.822 31.5354 102.326 29.881 102.326 27.2269C102.326 24.5646 103.83 22.8379 106.161 22.8379C108.453 22.8379 109.894 24.451 109.894 27.0246V27.6215H104.043V27.7268C104.016 28.0392 104.054 28.3539 104.155 28.65C104.256 28.9461 104.417 29.2168 104.628 29.4442C104.838 29.6716 105.094 29.8504 105.377 29.9688C105.661 30.0872 105.966 30.1425 106.271 30.131C106.673 30.1696 107.077 30.0742 107.421 29.8591C107.766 29.644 108.034 29.3206 108.185 28.9371L109.799 28.9371ZM104.051 26.4039H108.193C108.208 26.123 108.166 25.8419 108.071 25.5783C107.975 25.3147 107.827 25.0742 107.636 24.8719C107.445 24.6696 107.216 24.5099 106.962 24.4028C106.708 24.2957 106.435 24.2436 106.161 24.2496C105.884 24.2479 105.609 24.3025 105.353 24.41C105.097 24.5176 104.864 24.6761 104.668 24.8764C104.471 25.0767 104.316 25.3148 104.21 25.5769C104.104 25.8391 104.05 26.1202 104.051 26.4039V26.4039Z" fill="black"/>
</g>
<g id="&#60;Group&#62;">
<g id="Group_2">
<path id="Vector_9" d="M44.3208 11.0259C44.6774 10.9997 45.0351 11.0548 45.3683 11.1874C45.7015 11.32 46.0018 11.5267 46.2476 11.7926C46.4933 12.0585 46.6784 12.377 46.7895 12.7251C46.9006 13.0731 46.9349 13.4421 46.89 13.8054C46.89 15.5925 45.9472 16.6198 44.3208 16.6198H42.3486V11.0259H44.3208ZM43.1967 15.8287H44.2261C44.4809 15.8443 44.7358 15.8015 44.9724 15.7034C45.209 15.6053 45.4212 15.4545 45.5937 15.2617C45.7662 15.069 45.8946 14.8393 45.9695 14.5894C46.0444 14.3394 46.0639 14.0755 46.0267 13.8168C46.0612 13.5592 46.0397 13.2969 45.9636 13.0488C45.8876 12.8006 45.7589 12.5728 45.5868 12.3816C45.4147 12.1904 45.2035 12.0406 44.9682 11.9429C44.733 11.8452 44.4796 11.802 44.2261 11.8164H43.1967V15.8287Z" fill="black"/>
<path id="Vector_10" d="M47.8481 14.5077C47.8222 14.2303 47.8531 13.9504 47.939 13.686C48.0249 13.4215 48.1637 13.1784 48.3467 12.9722C48.5297 12.7659 48.7527 12.6011 49.0014 12.4884C49.2502 12.3756 49.5192 12.3174 49.7912 12.3174C50.0632 12.3174 50.3323 12.3756 50.581 12.4884C50.8298 12.6011 51.0528 12.7659 51.2358 12.9722C51.4187 13.1784 51.5576 13.4215 51.6435 13.686C51.7293 13.9504 51.7603 14.2303 51.7344 14.5077C51.7608 14.7854 51.7302 15.0657 51.6445 15.3306C51.5589 15.5955 51.4201 15.8391 51.2371 16.0457C51.0541 16.2523 50.8309 16.4175 50.5819 16.5305C50.3329 16.6435 50.0636 16.7018 49.7912 16.7018C49.5189 16.7018 49.2495 16.6435 49.0005 16.5305C48.7515 16.4175 48.5284 16.2523 48.3453 16.0457C48.1623 15.8391 48.0236 15.5955 47.9379 15.3306C47.8523 15.0657 47.8217 14.7854 47.8481 14.5077ZM50.898 14.5077C50.898 13.5927 50.4967 13.0575 49.7926 13.0575C49.0857 13.0575 48.6881 13.5927 48.6881 14.5077C48.6881 15.4301 49.0857 15.9611 49.7926 15.9611C50.4967 15.9611 50.898 15.4265 50.898 14.5077H50.898Z" fill="black"/>
<path id="Vector_11" d="M56.9002 16.619H56.0566L55.205 13.5098H55.1407L54.2926 16.619H53.4571L52.3213 12.3975H53.1461L53.8842 15.6187H53.945L54.7921 12.3975H55.5723L56.4194 15.6187H56.4838L57.2183 12.3975H58.0315L56.9002 16.619Z" fill="black"/>
<path id="Vector_12" d="M58.9873 12.3972H59.7701V13.0678H59.8309C59.934 12.8269 60.1078 12.625 60.3282 12.4902C60.5487 12.3554 60.8046 12.2944 61.0605 12.3157C61.261 12.3002 61.4623 12.3312 61.6495 12.4063C61.8367 12.4814 62.0051 12.5987 62.142 12.7495C62.279 12.9003 62.3811 13.0807 62.4408 13.2774C62.5004 13.4741 62.5161 13.682 62.4867 13.8858V16.6186H61.6735V14.095C61.6735 13.4166 61.3858 13.0792 60.7844 13.0792C60.6482 13.0727 60.5124 13.0965 60.386 13.1488C60.2597 13.2012 60.1459 13.2809 60.0525 13.3825C59.959 13.4841 59.8881 13.6052 59.8446 13.7375C59.8011 13.8698 59.7861 14.0102 59.8005 14.149V16.6187H58.9873L58.9873 12.3972Z" fill="black"/>
<path id="Vector_13" d="M63.7822 10.75H64.5954V16.6194H63.7822V10.75Z" fill="black"/>
<path id="Vector_14" d="M65.726 14.5059C65.7001 14.2284 65.7311 13.9485 65.817 13.684C65.9029 13.4196 66.0417 13.1765 66.2247 12.9702C66.4077 12.764 66.6307 12.5992 66.8795 12.4864C67.1283 12.3737 67.3973 12.3154 67.6694 12.3154C67.9414 12.3154 68.2104 12.3737 68.4592 12.4864C68.708 12.5992 68.931 12.764 69.114 12.9702C69.297 13.1765 69.4358 13.4196 69.5217 13.684C69.6076 13.9485 69.6386 14.2284 69.6127 14.5059C69.6391 14.7836 69.6085 15.0639 69.5228 15.3287C69.4371 15.5936 69.2983 15.8372 69.1153 16.0438C68.9323 16.2505 68.7091 16.4156 68.4601 16.5286C68.211 16.6416 67.9417 16.6999 67.6694 16.6999C67.397 16.6999 67.1277 16.6416 66.8786 16.5286C66.6296 16.4156 66.4064 16.2505 66.2234 16.0438C66.0404 15.8372 65.9016 15.5936 65.8159 15.3287C65.7302 15.0639 65.6996 14.7836 65.726 14.5059ZM68.7759 14.5059C68.7759 13.5908 68.3746 13.0557 67.6705 13.0557C66.9636 13.0557 66.566 13.5908 66.566 14.5059C66.566 15.4283 66.9636 15.9593 67.6705 15.9593C68.3746 15.9593 68.7759 15.4246 68.7759 14.5059H68.7759Z" fill="black"/>
<path id="Vector_15" d="M70.4688 15.4265C70.4688 14.6666 71.021 14.2285 72.0013 14.1663L73.1174 14.1004V13.736C73.1174 13.2901 72.8297 13.0384 72.2739 13.0384C71.8199 13.0384 71.5053 13.2091 71.4151 13.5076H70.6278C70.7109 12.7825 71.3767 12.3174 72.3114 12.3174C73.3444 12.3174 73.927 12.8443 73.927 13.736V16.6204H73.1442V16.0271H73.0799C72.9493 16.2399 72.7659 16.4134 72.5485 16.5298C72.331 16.6463 72.0873 16.7015 71.8422 16.6899C71.6693 16.7083 71.4944 16.6894 71.329 16.6344C71.1636 16.5794 71.0113 16.4894 70.8819 16.3704C70.7525 16.2514 70.6489 16.1059 70.5777 15.9433C70.5065 15.7807 70.4694 15.6047 70.4688 15.4265ZM73.1174 15.0658V14.7129L72.1112 14.7788C71.5438 14.8177 71.2864 15.0154 71.2864 15.3876C71.2864 15.7675 71.6081 15.9886 72.0505 15.9886C72.1801 16.0021 72.311 15.9887 72.4355 15.9492C72.5599 15.9097 72.6754 15.845 72.7749 15.7589C72.8744 15.6728 72.9561 15.5671 73.0149 15.448C73.0738 15.3289 73.1086 15.199 73.1174 15.0658Z" fill="black"/>
<path id="Vector_16" d="M74.9951 14.5069C74.9951 13.173 75.6644 12.3279 76.7055 12.3279C76.963 12.3158 77.2186 12.379 77.4423 12.5101C77.6661 12.6413 77.8488 12.835 77.9691 13.0685H78.0298V10.75H78.843V16.6194H78.0638V15.9525H77.9995C77.8699 16.1845 77.6808 16.3758 77.4527 16.5056C77.2247 16.6354 76.9662 16.6989 76.7055 16.689C75.6573 16.6891 74.9951 15.844 74.9951 14.5069ZM75.8351 14.5069C75.8351 15.4023 76.2471 15.9411 76.9361 15.9411C77.6215 15.9411 78.0451 15.3945 78.0451 14.5105C78.0451 13.6307 77.617 13.0764 76.9361 13.0764C76.2515 13.0764 75.8351 13.6188 75.8351 14.5069H75.8351Z" fill="black"/>
<path id="Vector_17" d="M82.2074 14.5077C82.1815 14.2303 82.2125 13.9504 82.2984 13.686C82.3842 13.4215 82.5231 13.1784 82.7061 12.9722C82.889 12.7659 83.112 12.6011 83.3608 12.4884C83.6096 12.3756 83.8786 12.3174 84.1506 12.3174C84.4226 12.3174 84.6916 12.3756 84.9404 12.4884C85.1892 12.6011 85.4122 12.7659 85.5951 12.9722C85.7781 13.1784 85.917 13.4215 86.0028 13.686C86.0887 13.9504 86.1197 14.2303 86.0938 14.5077C86.1202 14.7854 86.0896 15.0657 86.0039 15.3306C85.9183 15.5955 85.7795 15.8391 85.5965 16.0457C85.4135 16.2523 85.1903 16.4175 84.9413 16.5305C84.6923 16.6435 84.4229 16.7018 84.1506 16.7018C83.8783 16.7018 83.6089 16.6435 83.3599 16.5305C83.1109 16.4175 82.8877 16.2523 82.7047 16.0457C82.5217 15.8391 82.3829 15.5955 82.2973 15.3306C82.2116 15.0657 82.181 14.7854 82.2074 14.5077ZM85.2573 14.5077C85.2573 13.5927 84.8561 13.0575 84.1519 13.0575C83.4451 13.0575 83.0475 13.5927 83.0475 14.5077C83.0475 15.4301 83.4451 15.9611 84.1519 15.9611C84.8561 15.9611 85.2573 15.4265 85.2573 14.5077Z" fill="black"/>
<path id="Vector_18" d="M87.1855 12.3972H87.9684V13.0678H88.0291C88.1322 12.8269 88.3061 12.625 88.5265 12.4902C88.7469 12.3554 89.0029 12.2944 89.2587 12.3157C89.4592 12.3002 89.6605 12.3312 89.8478 12.4063C90.035 12.4814 90.2033 12.5987 90.3403 12.7495C90.4773 12.9003 90.5794 13.0807 90.639 13.2774C90.6987 13.4741 90.7144 13.682 90.685 13.8858V16.6186H89.8718V14.095C89.8718 13.4166 89.584 13.0792 88.9826 13.0792C88.8465 13.0727 88.7106 13.0965 88.5843 13.1488C88.4579 13.2012 88.3442 13.2809 88.2507 13.3825C88.1573 13.4841 88.0864 13.6052 88.0429 13.7375C87.9994 13.8698 87.9843 14.0102 87.9987 14.149V16.6187H87.1855V12.3972Z" fill="black"/>
<path id="Vector_19" d="M95.2797 11.3467V12.4169H96.1725V13.1187H95.2797V15.2894C95.2797 15.7316 95.4576 15.9252 95.8624 15.9252C95.966 15.9249 96.0695 15.9185 96.1725 15.906V16.6C96.0264 16.6267 95.8785 16.641 95.7301 16.6425C94.8258 16.6425 94.4656 16.3166 94.4656 15.5027V13.1186H93.8115V12.4169H94.4656V11.3467H95.2797Z" fill="black"/>
<path id="Vector_20" d="M97.2832 10.75H98.0892V13.0764H98.1536C98.2617 12.8332 98.4403 12.6302 98.6651 12.4949C98.89 12.3595 99.1501 12.2985 99.41 12.3201C99.6094 12.309 99.8088 12.3431 99.9939 12.42C100.179 12.497 100.345 12.6148 100.481 12.7651C100.616 12.9154 100.718 13.0945 100.778 13.2896C100.838 13.4848 100.856 13.6911 100.829 13.8939V16.6195H100.015V14.0995C100.015 13.4252 99.7085 13.0837 99.1339 13.0837C98.9941 13.0719 98.8536 13.0916 98.722 13.1414C98.5904 13.1911 98.4711 13.2697 98.3722 13.3716C98.2734 13.4736 98.1975 13.5964 98.1499 13.7315C98.1023 13.8666 98.084 14.0108 98.0964 14.1539V16.6194H97.2832L97.2832 10.75Z" fill="black"/>
<path id="Vector_21" d="M105.571 15.4786C105.46 15.8645 105.221 16.1982 104.894 16.4215C104.568 16.6447 104.175 16.7433 103.785 16.7C103.514 16.7073 103.244 16.654 102.995 16.5438C102.745 16.4337 102.522 16.2692 102.341 16.0619C102.16 15.8546 102.025 15.6094 101.946 15.3433C101.867 15.0772 101.845 14.7966 101.882 14.521C101.846 14.2446 101.868 13.9634 101.947 13.6965C102.026 13.4296 102.16 13.1833 102.341 12.9741C102.521 12.765 102.743 12.598 102.991 12.4843C103.24 12.3707 103.509 12.3131 103.782 12.3155C104.928 12.3155 105.62 13.118 105.62 14.4436V14.7343H102.71V14.781C102.697 14.9359 102.716 15.0919 102.766 15.2388C102.816 15.3858 102.894 15.5205 102.998 15.6344C103.101 15.7482 103.227 15.8387 103.366 15.9C103.505 15.9613 103.656 15.9921 103.808 15.9904C104.002 16.0143 104.199 15.9784 104.374 15.8873C104.548 15.7962 104.692 15.6539 104.788 15.4786L105.571 15.4786ZM102.71 14.1182H104.791C104.802 13.9765 104.783 13.8342 104.736 13.7004C104.69 13.5666 104.616 13.4443 104.521 13.3413C104.425 13.2383 104.31 13.1569 104.182 13.1024C104.054 13.0478 103.916 13.0213 103.777 13.0246C103.637 13.0228 103.497 13.0498 103.367 13.1041C103.236 13.1585 103.118 13.239 103.019 13.3409C102.919 13.4428 102.841 13.5641 102.788 13.6976C102.735 13.8311 102.708 13.9741 102.71 14.1182H102.71Z" fill="black"/>
</g>
</g>
</g>
<g id="&#60;Group&#62;_2">
<g id="&#60;Group&#62;_3">
<path id="&#60;Path&#62;" d="M32.5807 22.79C32.5909 21.9762 32.8019 21.1784 33.1939 20.4707C33.586 19.7629 34.1464 19.1683 34.8231 18.7421C34.3932 18.1131 33.8261 17.5955 33.1669 17.2304C32.5076 16.8652 31.7743 16.6626 31.0252 16.6386C29.4273 16.4667 27.8782 17.6182 27.0639 17.6182C26.2339 17.6182 24.9802 16.6556 23.6302 16.6841C22.757 16.713 21.9059 16.9732 21.16 17.4392C20.4141 17.9053 19.7987 18.5613 19.3739 19.3435C17.5336 22.6079 18.9063 27.4054 20.6692 30.0441C21.5512 31.3362 22.582 32.7795 23.9308 32.7283C25.2507 32.6722 25.7436 31.866 27.3368 31.866C28.9153 31.866 29.3777 32.7283 30.7539 32.6958C32.1702 32.6722 33.0626 31.398 33.9136 30.0936C34.5474 29.173 35.035 28.1554 35.3585 27.0787C34.5357 26.7222 33.8335 26.1254 33.3395 25.3627C32.8455 24.6 32.5816 23.7053 32.5807 22.79Z" fill="black"/>
<path id="&#60;Path&#62;_2" d="M29.9809 14.903C30.7531 13.9533 31.1336 12.7325 31.0415 11.5C29.8617 11.627 28.7719 12.2046 27.9892 13.118C27.6066 13.5641 27.3135 14.0832 27.1267 14.6455C26.94 15.2078 26.8633 15.8023 26.9009 16.395C27.491 16.4012 28.0748 16.2702 28.6083 16.0117C29.1418 15.7533 29.6111 15.3742 29.9809 14.903Z" fill="black"/>
</g>
</g>
</g>
</g>
</svg>
