<svg width="127" height="45" viewBox="0 0 127 45" fill="none" xmlns="http://www.w3.org/2000/svg">
<g id="Frame 34463">
<rect width="127" height="45" rx="6" fill="white"/>
<g id="Group 34186">
<g id="logo">
<path id="path26" d="M19.6963 22.2001L9.84082 32.7409C9.84119 32.743 9.84193 32.7449 9.8423 32.747C10.1445 33.8916 11.182 34.7344 12.4132 34.7344C12.9054 34.7344 13.3675 34.6003 13.7638 34.3649L13.7953 34.3463L24.8889 27.8957L19.6963 22.2001Z" fill="#EB3131"/>
<path id="path28" d="M29.6673 20.4051L29.6578 20.3985L24.8685 17.6008L19.4727 22.4391L24.8872 27.8945L29.6513 25.1245C30.4866 24.6702 31.0536 23.7829 31.0536 22.7597C31.0536 21.7438 30.4942 20.8609 29.6673 20.4051Z" fill="#F6B60B"/>
<path id="path30" d="M9.84039 12.7353C9.78114 12.9554 9.75 13.186 9.75 13.4254V32.0515C9.75 32.2905 9.78077 32.5219 9.84076 32.7412L20.0354 22.4701L9.84039 12.7353Z" fill="#5778C5"/>
<path id="path32" d="M19.7693 22.7383L24.8704 17.5994L13.7895 11.1255C13.3867 10.8824 12.9166 10.7421 12.4136 10.7421C11.1823 10.7421 10.1435 11.5864 9.84119 12.7324C9.84082 12.7335 9.84082 12.7342 9.84082 12.7353L19.7693 22.7383Z" fill="#3BAD49"/>
</g>
<g id="g4036">
<g id="g4038">
<path id="path4046" d="M44.4566 13.244C44.4566 14.0255 44.2269 14.6479 43.7669 15.1122C43.2445 15.6642 42.5635 15.9404 41.7264 15.9404C40.9247 15.9404 40.2431 15.6606 39.6826 15.1001C39.121 14.5401 38.8408 13.8456 38.8408 13.0169C38.8408 12.1879 39.121 11.4938 39.6826 10.9333C40.2431 10.3733 40.9247 10.093 41.7264 10.093C42.1242 10.093 42.505 10.1714 42.8666 10.3277C43.2282 10.4845 43.5182 10.6925 43.7352 10.953L43.247 11.4453C42.8793 11.0026 42.373 10.7814 41.7264 10.7814C41.1417 10.7814 40.6362 10.9884 40.2095 11.4026C39.7827 11.8174 39.5695 12.3552 39.5695 13.0169C39.5695 13.6787 39.7827 14.2165 40.2095 14.6312C40.6362 15.0455 41.1417 15.2525 41.7264 15.2525C42.3466 15.2525 42.8637 15.0443 43.2777 14.6276C43.5464 14.356 43.7019 13.9786 43.7434 13.4939H41.7264V12.8216H44.4179C44.4439 12.9678 44.4566 13.1081 44.4566 13.244Z" fill="black"/>
<path id="path4048" d="M44.4564 13.2444H44.3638C44.3631 14.0082 44.1418 14.6013 43.7013 15.0467L43.7003 15.0474L43.6999 15.0482C43.194 15.5812 42.5438 15.8465 41.7262 15.8476C40.9459 15.8465 40.2928 15.5783 39.7475 15.0346C39.2033 14.4899 38.9342 13.8249 38.9332 13.0174C38.9342 12.2096 39.2033 11.5449 39.7475 11.0005C40.2928 10.4565 40.9459 10.1879 41.7262 10.1868C42.112 10.1868 42.4794 10.2626 42.8298 10.4138C43.1806 10.5662 43.4577 10.7658 43.6641 11.0137L43.735 10.9535L43.6696 10.8875L43.1813 11.3802L43.2468 11.4457L43.3181 11.386C42.9332 10.9214 42.3931 10.6872 41.7262 10.6886C41.1198 10.6878 40.5864 10.9061 40.1452 11.3361C39.6998 11.7676 39.4759 12.3356 39.4767 13.0174C39.4759 13.6992 39.6998 14.2672 40.1452 14.6986C40.5864 15.1287 41.1198 15.347 41.7262 15.3462C42.367 15.3473 42.9131 15.1283 43.343 14.694C43.6301 14.4039 43.7929 14.002 43.8355 13.5024L43.8441 13.4011H41.8188V12.9153H44.4177V12.8221L44.3265 12.8385C44.3519 12.9799 44.3638 13.1143 44.3638 13.2444H44.4564H44.549C44.549 13.1026 44.5359 12.9569 44.5088 12.8054L44.4951 12.7288H41.6336V13.4943V13.5876H43.7432V13.4943L43.651 13.4863C43.6102 13.9557 43.4619 14.3092 43.2121 14.5621C42.8143 14.9614 42.3261 15.1585 41.7262 15.1596C41.1632 15.1589 40.6855 14.9636 40.2736 14.5646C39.8658 14.167 39.6628 13.6595 39.6618 13.0174C39.6628 12.3753 39.8658 11.8678 40.2736 11.4702C40.6855 11.0712 41.1632 10.8759 41.7262 10.8751C42.3522 10.8766 42.8248 11.085 43.176 11.5059L43.241 11.5839L43.8004 11.0194L43.8604 10.959L43.8058 10.8937C43.5784 10.6205 43.2754 10.4036 42.9029 10.2426C42.5297 10.0811 42.1359 10.0002 41.7262 10.0002C40.9032 9.99948 40.193 10.291 39.6169 10.8679C39.0387 11.4436 38.7473 12.1673 38.748 13.0174C38.7473 13.8671 39.0387 14.5912 39.6173 15.1673C40.193 15.7438 40.9032 16.0349 41.7262 16.0342C42.5832 16.0349 43.2942 15.7481 43.8337 15.1771L43.7668 15.1126L43.8322 15.1786C44.3117 14.6957 44.5496 14.0435 44.549 13.2444H44.4564Z" fill="black"/>
<path id="path4050" d="M48.723 10.906H46.1936V12.6806H48.4746V13.3532H46.1936V15.1278H48.723V15.8154H45.4805V10.2184H48.723V10.906Z" fill="black"/>
<path id="path4052" d="M48.7238 10.9065V10.8132H46.1018V12.7744H48.3828V13.2601L46.1018 13.2604V15.2216H48.6312V15.7226H45.5738V10.3122H48.6312V10.9065H48.7238V10.8132V10.9065H48.8163V10.2189V10.1256H45.3887V15.9092H48.8163V15.1283V15.035H46.2869V13.447H48.568V12.6811V12.5878H46.2869V10.9998H48.8163V10.9065H48.7238Z" fill="black"/>
<path id="path4054" d="M51.7333 15.8154H51.0191V10.906H49.4678V10.2184H53.2846V10.906H51.7333V15.8154Z" fill="black"/>
<path id="path4056" d="M51.7331 15.8159V15.7226H51.1115V10.8132H49.5601V10.3122H53.1918V10.8132H51.6405V15.8159H51.7331V15.7226V15.8159H51.8257V10.9998H53.377V10.2189V10.1256H49.375V10.9065V10.9998H50.9263V15.9092H51.7331H51.8257V15.8159H51.7331Z" fill="black"/>
<path id="path4058" d="M56.0459 15.8154V10.2184H56.7594V15.8154H56.0459Z" fill="black"/>
<path id="path4060" d="M56.0467 15.8159H56.1392V10.3122H56.6675V15.7226H56.0467V15.8159H56.1392H56.0467V15.9092H56.7601H56.8527V10.1256H56.0467H55.9541V15.9092H56.0467V15.8159Z" fill="black"/>
<path id="path4062" d="M59.9256 15.8154H59.2114V10.906H57.6602V10.2184H61.4769V10.906H59.9256V15.8154Z" fill="black"/>
<path id="path4064" d="M59.9254 15.8159V15.7226H59.3038V10.8132H57.7525V10.3122H61.3841V10.8132H59.8328V15.8159H59.9254V15.7226V15.8159H60.0179V10.9998H61.5693V10.2189V10.1256H57.5674V10.9065V10.9998H59.1186V15.9092H59.9254H60.0179V15.8159H59.9254Z" fill="black"/>
<path id="path4066" d="M65.1567 14.6235C65.5678 15.0429 66.0708 15.2525 66.6657 15.2525C67.2606 15.2525 67.7639 15.0429 68.1743 14.6235C68.5858 14.2041 68.792 13.668 68.792 13.0169C68.792 12.3658 68.5858 11.8297 68.1743 11.4103C67.7639 10.9909 67.2606 10.7814 66.6657 10.7814C66.0708 10.7814 65.5678 10.9909 65.1567 11.4103C64.7462 11.8297 64.5402 12.3658 64.5402 13.0169C64.5402 13.668 64.7462 14.2041 65.1567 14.6235ZM68.7023 15.0921C68.1562 15.658 67.4771 15.9404 66.6657 15.9404C65.8535 15.9404 65.1747 15.658 64.6299 15.0921C64.0834 14.5269 63.8115 13.835 63.8115 13.0169C63.8115 12.1988 64.0834 11.5068 64.6299 10.9417C65.1747 10.3758 65.8535 10.093 66.6657 10.093C67.4728 10.093 68.1501 10.3773 68.6987 10.9454C69.2465 11.5135 69.5206 12.204 69.5206 13.0169C69.5206 13.835 69.2472 14.5269 68.7023 15.0921Z" fill="black"/>
<path id="path4068" d="M65.1565 14.624L65.0907 14.6896C65.5171 15.1258 66.049 15.3473 66.6655 15.3462C67.2817 15.3473 67.8143 15.1258 68.24 14.6896C68.6691 14.253 68.885 13.6882 68.8844 13.0174C68.885 12.3466 68.6691 11.7818 68.24 11.3452C67.8143 10.909 67.2817 10.6874 66.6655 10.6886C66.049 10.6874 65.5171 10.909 65.0907 11.3452C64.6625 11.7818 64.4463 12.3466 64.4474 13.0174C64.4463 13.6882 64.6625 14.253 65.0907 14.6896L65.1565 14.624L65.2223 14.5584C64.8296 14.1557 64.6333 13.6492 64.6325 13.0174C64.6333 12.3856 64.8296 11.879 65.2223 11.4763C65.6186 11.0737 66.0919 10.8762 66.6655 10.8751C67.2386 10.8762 67.7131 11.0737 68.1083 11.4763C68.5018 11.879 68.6981 12.3856 68.6989 13.0174C68.6981 13.6492 68.5018 14.1557 68.1083 14.5584C67.7131 14.961 67.2386 15.1585 66.6655 15.1596C66.0919 15.1585 65.6186 14.961 65.2223 14.5584L65.1565 14.624ZM68.7021 15.0926L68.6359 15.0277C68.1051 15.5758 67.456 15.8465 66.6655 15.8476C65.8747 15.8465 65.2255 15.5758 64.6958 15.0277L64.6933 15.0248L64.6958 15.0277C64.1661 14.4778 63.9046 13.8147 63.9039 13.0174C63.9046 12.2201 64.1661 11.5569 64.6958 11.007C65.2255 10.459 65.8747 10.1879 66.6655 10.1868C67.4509 10.1879 68.0985 10.4601 68.6323 11.011C69.1638 11.5635 69.4268 12.2256 69.4279 13.0174C69.4268 13.8147 69.1646 14.4778 68.6359 15.0277L68.7021 15.0926L68.7687 15.1574C69.3298 14.5766 69.6137 13.8562 69.613 13.0174C69.6137 12.1833 69.3287 11.4644 68.765 10.881C68.2009 10.2954 67.4943 9.9992 66.6655 10.0002C65.8324 9.9992 65.1236 10.294 64.5631 10.8774V10.877C64.0008 11.4582 63.718 12.1786 63.7188 13.0174C63.718 13.8562 64.0008 14.5766 64.5631 15.1578L64.5656 15.1604L64.5631 15.1574C65.1236 15.7408 65.8324 16.0349 66.6655 16.0342C67.4983 16.0349 68.207 15.7408 68.7687 15.1574L68.7021 15.0926Z" fill="black"/>
<path id="path4070" d="M70.5225 15.8154V10.2184H71.3911L74.0905 14.5725H74.1212L74.0905 13.4939V10.2184H74.8047V15.8154H74.0597L71.2355 11.2503H71.2048L71.2355 12.3293V15.8154H70.5225Z" fill="black"/>
<path id="path4072" d="M70.5223 15.8159H70.6148V10.3122H71.3395L74.0389 14.6663H74.121H74.2161L74.1828 13.4929V10.3122H74.7119V15.7226H74.1109L71.2867 11.1575H71.2046H71.1095L71.1428 12.3313V15.7226H70.5223V15.8159H70.6148H70.5223V15.9092H71.2353H71.3279V12.3283L71.2972 11.2483L71.2046 11.2508V11.3441H71.2353V11.2508L71.1568 11.3004L74.0081 15.9092H74.8045H74.897V10.1256H74.0903H73.9977V13.4955L74.0284 14.5755L74.121 14.573V14.4797H74.0903V14.573L74.1688 14.5235L71.4421 10.1256H70.5223H70.4297V15.9092H70.5223V15.8159Z" fill="black"/>
<path id="path4074" d="M99.5533 31.6741H101.281V20.0126H99.5533V31.6741ZM115.112 24.2133L113.132 29.2692H113.073L111.017 24.2133H109.157L112.238 31.2798L110.481 35.2105H112.284L117.033 24.2133H115.112ZM105.316 30.3496C104.749 30.3496 103.961 30.0646 103.961 29.3592C103.961 28.4591 104.944 28.1141 105.792 28.1141C106.552 28.1141 106.908 28.2791 107.37 28.5044C107.236 29.5844 106.313 30.3496 105.316 30.3496ZM105.524 23.9582C104.274 23.9582 102.979 24.5135 102.443 25.7437L103.976 26.3887C104.303 25.7437 104.913 25.5335 105.554 25.5335C106.447 25.5335 107.355 26.0739 107.37 27.034V27.1539C107.057 26.9739 106.388 26.7039 105.569 26.7039C103.916 26.7039 102.233 27.6188 102.233 29.3293C102.233 30.8896 103.589 31.8949 105.107 31.8949C106.269 31.8949 106.908 31.3698 107.311 30.7548H107.37V31.6548H109.037V27.1837C109.037 25.1137 107.504 23.9582 105.524 23.9582ZM94.8488 25.6329H92.392V21.6356H94.8488C96.1402 21.6356 96.8734 22.713 96.8734 23.6342C96.8734 24.5379 96.1402 25.6329 94.8488 25.6329ZM94.8044 20.0126H90.6655V31.6741H92.392V27.2559H94.8044C96.7188 27.2559 98.6008 25.8592 98.6008 23.6342C98.6008 21.4093 96.7188 20.0126 94.8044 20.0126ZM72.2344 30.3517C71.041 30.3517 70.0419 29.3449 70.0419 27.9621C70.0419 26.5647 71.041 25.5426 72.2344 25.5426C73.4126 25.5426 74.3372 26.5647 74.3372 27.9621C74.3372 29.3449 73.4126 30.3517 72.2344 30.3517ZM74.2178 24.8663H74.1581C73.7705 24.4005 73.0245 23.9797 72.0851 23.9797C70.1164 23.9797 68.312 25.7229 68.312 27.9621C68.312 30.1864 70.1164 31.9146 72.0851 31.9146C73.0245 31.9146 73.7705 31.4937 74.1581 31.0131H74.2178V31.5841C74.2178 33.1022 73.4126 33.9137 72.1151 33.9137C71.0562 33.9137 70.4 33.147 70.1313 32.5009L68.6252 33.1321C69.0577 34.184 70.2061 35.4766 72.1151 35.4766C74.1433 35.4766 75.8584 34.274 75.8584 31.3436V24.2202H74.2178V24.8663ZM77.0514 31.6741H78.7814V20.0122H77.0514V31.6741ZM81.3317 27.8269C81.2869 26.2939 82.5099 25.5127 83.3897 25.5127C84.0762 25.5127 84.6576 25.8581 84.851 26.3545L81.3317 27.8269ZM86.7006 26.5045C86.3729 25.6176 85.3732 23.9797 83.33 23.9797C81.3017 23.9797 79.6166 25.5878 79.6166 27.9472C79.6166 30.1714 81.2869 31.9146 83.5238 31.9146C85.3287 31.9146 86.3729 30.8025 86.8052 30.1564L85.4629 29.2545C85.0158 29.9159 84.4039 30.3517 83.5238 30.3517C82.644 30.3517 82.0178 29.9459 81.6149 29.1496L86.8793 26.9553L86.7006 26.5045ZM44.7579 25.1971V26.8802H48.7547C48.6354 27.8269 48.3222 28.5182 47.8449 28.9991C47.2634 29.5854 46.3536 30.2315 44.7579 30.2315C42.297 30.2315 40.3733 28.2328 40.3733 25.7531C40.3733 23.2735 42.297 21.2745 44.7579 21.2745C46.0853 21.2745 47.0544 21.8006 47.7704 22.4769L48.9485 21.2898C47.9494 20.3278 46.6219 19.5914 44.7579 19.5914C41.3872 19.5914 38.5537 22.3567 38.5537 25.7531C38.5537 29.1496 41.3872 31.9146 44.7579 31.9146C46.5775 31.9146 47.9494 31.3138 49.0231 30.1864C50.1267 29.0742 50.4699 27.5114 50.4699 26.2491C50.4699 25.8581 50.4402 25.4977 50.3802 25.1971H44.7579ZM55.0139 30.3517C53.8205 30.3517 52.7914 29.3599 52.7914 27.9472C52.7914 26.5195 53.8205 25.5426 55.0139 25.5426C56.2067 25.5426 57.2359 26.5195 57.2359 27.9472C57.2359 29.3599 56.2067 30.3517 55.0139 30.3517ZM55.0139 23.9797C52.8362 23.9797 51.0614 25.6478 51.0614 27.9472C51.0614 30.2315 52.8362 31.9146 55.0139 31.9146C57.1911 31.9146 58.9659 30.2315 58.9659 27.9472C58.9659 25.6478 57.1911 23.9797 55.0139 23.9797ZM63.6353 30.3517C62.4424 30.3517 61.4132 29.3599 61.4132 27.9472C61.4132 26.5195 62.4424 25.5426 63.6353 25.5426C64.8283 25.5426 65.8574 26.5195 65.8574 27.9472C65.8574 29.3599 64.8283 30.3517 63.6353 30.3517ZM63.6353 23.9797C61.4577 23.9797 59.6833 25.6478 59.6833 27.9472C59.6833 30.2315 61.4577 31.9146 63.6353 31.9146C65.8126 31.9146 67.5874 30.2315 67.5874 27.9472C67.5874 25.6478 65.8126 23.9797 63.6353 23.9797Z" fill="black"/>
</g>
</g>
</g>
</g>
</svg>
