<?xml version="1.0" encoding="utf-8"?>
<!-- Generator: Adobe Illustrator 23.1.0, SVG Export Plug-In . SVG Version: 6.00 Build 0)  -->
<svg version="1.1" id="Layer_1" xmlns="http://www.w3.org/2000/svg" xmlns:xlink="http://www.w3.org/1999/xlink" x="0px" y="0px"
	 viewBox="0 0 512 512" style="enable-background:new 0 0 512 512;" xml:space="preserve">
<g>
	<path d="M358.1,42c-8.2-7.5-44.9-39.6-101.6-39.7c-57-0.1-94,32.2-102.1,39.7c0,22.8,0,45.6,0,68.4h203.7V42z M291.9,68.1h-26.3
		v26.1h-16.8V68.1h-26.4V51.6h26.4V25.5h16.8v26.1h26.3V68.1z"/>
	<path d="M256.3,260.6c56.2,0,101.8-45.6,101.8-101.8c0-7.2-0.8-14.1-2.2-20.9H156.6c-1.4,6.7-2.2,13.7-2.2,20.9
		C154.4,215.1,200,260.6,256.3,260.6z"/>
	<path d="M353.9,281.8h-2.5v133.7c16,4.4,27.1,20.6,22.9,38.8c-2.7,11.6-12.1,21-23.7,23.7c-21.2,4.9-40-11-40-31.4
		c0-14.9,10.1-27.3,23.8-31V281.8h-15.7c-6.1,0-11,4.9-11,11v15.7c0,8.3-6.7,15-15,15h-72.2c-8.3,0-15-6.7-15-15v-15.7
		c0-6.1-4.9-11-11-11h-18.3v45c40.9,16.9,52.6,66.9,42.3,107.5c-4.3,17-12.1,29.3-23.1,36.8c-1.5,1-3.1,1.5-4.8,1.5
		c-2.7,0-5.4-1.3-7.1-3.7c-2.6-3.9-1.6-9.2,2.3-11.8c7.4-5,12.8-14.1,16.1-26.9c8.8-34.6-1.8-76.4-34.3-88.5
		c-32.5,12.1-43.1,53.9-34.3,88.5c3.3,12.8,8.7,21.8,16.1,26.9c3.9,2.6,4.9,7.9,2.3,11.8c-2.6,3.9-7.9,4.9-11.8,2.3
		c-11-7.4-18.7-19.8-23.1-36.8c-10.3-40.6,1.4-90.6,42.3-107.5v-45c-52.7,0-95.4,42.7-95.4,95.4v124c0,4.7,3.8,8.5,8.5,8.5h368.5
		c4.7,0,8.5-3.8,8.5-8.5v-124C449.3,324.5,406.6,281.8,353.9,281.8z"/>
</g>
</svg>
