<?xml version="1.0" encoding="utf-8"?>
<!-- Generator: Adobe Illustrator 23.1.0, SVG Export Plug-In . SVG Version: 6.00 Build 0)  -->
<svg version="1.1" id="Layer_1" xmlns="http://www.w3.org/2000/svg" xmlns:xlink="http://www.w3.org/1999/xlink" x="0px" y="0px"
	 viewBox="0 0 2026.8 600" style="enable-background:new 0 0 2026.8 600;" xml:space="preserve">
<style type="text/css">
	.st0{fill:#A6A6A6;}
	.st1{fill:#FFFFFF;stroke:#FFFFFF;stroke-width:3;stroke-miterlimit:150;}
	.st2{fill:#FFFFFF;}
	.st3{fill:#EA4335;}
	.st4{fill:#FBBC04;}
	.st5{fill:#4285F4;}
	.st6{fill:#34A853;}
</style>
<path d="M1950.9,600H75.9c-41.3,0-75-33.8-75-75V75c0-41.3,33.8-75,75-75h1875c41.3,0,75,33.8,75,75v450
	C2025.9,566.3,1992.1,600,1950.9,600z"/>
<path class="st0" d="M1950.9,12c34.8,0,63,28.2,63,63v450c0,34.8-28.2,63-63,63H75.9c-34.8,0-63-28.2-63-63l0,0V75
	c0-34.8,28.2-63,63-63l0,0H1950.9z M1950.9,0H75.9c-41.3,0-75,33.8-75,75v450c0,41.3,33.8,75,75,75h1875c41.3,0,75-33.8,75-75V75
	C2025.9,33.8,1992.1,0,1950.9,0z"/>
<g>
	<path class="st1" d="M712.2,153.6c0,12.6-3.8,22.7-11.3,30c-8.4,8.9-19.3,13.3-33,13.3c-13,0-24.2-4.5-33.1-13.5
		c-9-9-13.5-20.3-13.5-33.4s4.5-24.4,13.5-33.4c9-9,20.1-13.6,33.1-13.6c6.6,0,12.9,1.2,18.8,3.4c5.8,2.4,10.6,5.7,14.4,9.9
		l-8.2,8.2c-2.7-3.3-6.3-6-10.8-7.8c-4.4-1.9-9.3-2.9-14.1-2.9c-9.8,0-18.1,3.4-24.9,10.2c-6.8,6.9-10,15.5-10,25.8
		c0,10.3,3.3,18.9,10,25.8c6.8,6.8,15,10.2,24.9,10.2c9,0,16.3-2.6,22.4-7.5c6-4.9,9.5-12,10.3-20.7h-32.7v-10.8h43.7
		C711.9,149.2,712.2,151.5,712.2,153.6z M781.3,105v11.1h-41v28.5h36.9v10.8h-36.9v28.5h41V195h-52.5v-90H781.3z M830.1,116.1V195
		h-11.5v-78.9h-25.2V105h61.8v11.1H830.1z M911.5,195H900v-90h11.5V195z M962.8,116.1V195h-11.5v-78.9h-25.2V105h61.8v11.1H962.8z
		 M1118.2,150c0,13.3-4.5,24.4-13.3,33.4c-9,9-20,13.5-33,13.5s-24-4.5-33-13.5c-8.8-9-13.3-20.1-13.3-33.4s4.5-24.4,13.3-33.4
		c8.8-9,19.8-13.6,33-13.6c13.1,0,24,4.5,33,13.6C1113.9,125.7,1118.2,136.8,1118.2,150z M1037.5,150c0,10.4,3.3,19.1,9.8,25.8
		c6.6,6.8,14.8,10.2,24.6,10.2s18-3.4,24.4-10.2c6.6-6.8,9.9-15.3,9.9-25.8s-3.3-19.1-9.9-25.8c-6.6-6.7-14.7-10.2-24.4-10.2
		s-18,3.4-24.6,10.2C1040.8,131,1037.5,139.7,1037.5,150z M1146,195h-11.5v-90h14.1l43.8,70.1h0.4l-0.4-17.4V105h11.5v90h-12
		l-45.8-73.3h-0.5l0.5,17.4V195H1146z"/>
	<path class="st2" d="M1023,326.3c-35.3,0-64,26.9-64,63.8c0,36.8,28.8,63.8,64,63.8s64-27,64-63.8
		C1087,353.1,1058.2,326.3,1023,326.3z M1023,428.7c-19.4,0-36-15.9-36-38.7c0-22.9,16.7-38.7,36-38.7c19.3,0,36,15.7,36,38.7
		C1059,412.8,1042.2,428.7,1023,428.7z M883.2,326.3c-35.3,0-64,26.8-64,63.7c0,36.8,28.8,63.8,64,63.8c35.2,0,64-27,64-63.8
		C947.2,353.1,918.4,326.3,883.2,326.3L883.2,326.3z M883.2,428.7c-19.4,0-36-15.9-36-38.7c0-22.9,16.7-38.7,36-38.7
		c19.3,0,36,15.7,36,38.7C919.2,412.8,902.5,428.7,883.2,428.7z M717,345.9v27h64.8c-2,15.1-7,26.4-14.7,34
		c-9.5,9.5-24.2,19.8-50,19.8c-39.9,0-71.1-32.1-71.1-72s31.2-72,71.1-72c21.5,0,37.2,8.4,48.8,19.4l19.1-19
		c-16.2-15.5-37.6-27.3-68-27.3c-54.6,0-100.5,44.4-100.5,99.2c0,54.6,45.9,99.1,100.5,99.1c29.6,0,51.8-9.6,69.2-27.7
		c17.8-17.8,23.4-43,23.4-63.3c0-6.3-0.5-12.2-1.5-17h-91L717,345.9z M1396.6,366.9c-5.3-14.3-21.4-40.6-54.6-40.6
		c-32.9,0-60.2,25.8-60.2,63.8c0,35.7,27,63.8,63.3,63.8c29.2,0,46.2-17.8,53.1-28.2l-21.8-14.6c-7.2,10.6-17.1,17.7-31.3,17.7
		c-14.3,0-24.4-6.4-30.9-19.4l85.4-35.2L1396.6,366.9z M1309.6,388.2c-0.8-24.6,19-37.2,33.3-37.2c11.1,0,20.6,5.5,23.7,13.5
		L1309.6,388.2z M1240.3,450h28.1V262.5h-28.1V450z M1194.4,340.5h-1c-6.3-7.5-18.3-14.3-33.6-14.3c-31.9,0-61.2,28-61.2,64.1
		c0,35.7,29.3,63.6,61.2,63.6c15.2,0,27.3-6.8,33.6-14.6h0.9v9.2c0,24.5-13.1,37.5-34,37.5c-17.1,0-27.8-12.3-32.1-22.6l-24.4,10.2
		c7.1,17,25.7,37.6,56.5,37.6c32.9,0,60.6-19.4,60.6-66.4V330.2h-26.5v10.3H1194.4z M1162.2,428.7c-19.3,0-35.6-16.2-35.6-38.4
		c0-22.5,16.2-38.9,35.6-38.9c19,0,34,16.5,34,38.9C1196.4,412.5,1181.4,428.7,1162.2,428.7z M1528,262.5H1461V450h28.1v-71.1h39.2
		c31.1,0,61.5-22.5,61.5-58.2C1589.5,285,1558.9,262.5,1528,262.5L1528,262.5z M1528.6,352.8h-39.8v-64.4h39.8
		c21,0,32.8,17.4,32.8,32.1C1561.5,335.2,1549.6,352.8,1528.6,352.8z M1701.7,325.9c-20.3,0-41.3,9-50,28.6l24.9,10.4
		c5.3-10.4,15.2-13.8,25.5-13.8c14.4,0,29.3,8.7,29.4,24.2v2c-5.1-2.8-15.9-7.2-29.3-7.2c-26.8,0-54,14.7-54,42.2
		c0,25,21.9,41.3,46.5,41.3c18.8,0,29.3-8.4,35.7-18.3h0.9v14.4h27v-71.9C1758.6,344.6,1733.7,325.9,1701.7,325.9z M1698.3,428.7
		c-9.2,0-21.9-4.7-21.9-15.9c0-14.4,15.9-20,29.7-20c12.3,0,18.2,2.7,25.5,6.3C1729.4,415.9,1715.2,428.6,1698.3,428.7L1698.3,428.7
		z M1857,330l-32.1,81.3h-0.9l-33.3-81.3h-30.2l49.9,113.7l-28.5,63.1h29.2l77-176.9H1857z M1605,450h28.1V262.5H1605V450z"/>
</g>
<path class="st3" d="M311.7,291.3L151.9,460.8v0.1c6.2,23,29.9,36.6,52.9,30.5c3.8-1,7.4-2.5,10.7-4.5l0.5-0.3l179.7-103.6
	L311.7,291.3z"/>
<path class="st4" d="M473.2,262.5l-0.1-0.1l-77.5-45l-87.5,77.9l87.8,87.7l77.3-44.6c21-11.4,28.8-37.6,17.4-58.6
	C486.5,272.5,480.5,266.5,473.2,262.5L473.2,262.5z"/>
<path class="st5" d="M151.9,139.2c-0.9,3.6-1.5,7.2-1.5,11.1v299.5c0,3.9,0.5,7.5,1.5,11.1l165.1-165.1L151.9,139.2z"/>
<path class="st6" d="M312.9,300l82.6-82.7L216,113.2c-20.5-12.3-47.2-5.6-59.4,15c-2,3.4-3.6,7-4.6,10.8L312.9,300z"/>
</svg>
