<?xml version="1.0" encoding="utf-8"?>
<!-- Generator: Adobe Illustrator 23.1.0, SVG Export Plug-In . SVG Version: 6.00 Build 0)  -->
<svg version="1.1" id="Layer_1" xmlns="http://www.w3.org/2000/svg" xmlns:xlink="http://www.w3.org/1999/xlink" x="0px" y="0px"
	 viewBox="0 0 800 800" style="enable-background:new 0 0 800 800;" xml:space="preserve">
<style type="text/css">
	.st0{fill:#3C4043;}
	.st1{fill-rule:evenodd;clip-rule:evenodd;fill:#FFFFFF;}
	.st2{fill:#4285F4;}
	.st3{fill:#34A853;}
	.st4{fill:#FBBC04;}
	.st5{fill:#EA4335;}
</style>
<g>
	<g>
		<path class="st0" d="M68.6,131.4h662.9c34.7,0,62.9,28.1,62.9,62.9v411.4c0,34.7-28.1,62.9-62.9,62.9H68.6
			c-34.7,0-62.9-28.1-62.9-62.9V194.3C5.7,159.6,33.9,131.4,68.6,131.4z"/>
	</g>
	<g>
		<path class="st1" d="M377.8,485.9v-69.1h35.6c14.6,0,26.9-4.9,37-14.5l2.4-2.4c18.4-20,17.1-51.1-2.4-69.6
			c-9.8-9.8-23.2-15.1-37-14.8h-57.2v170.5H377.8z M377.8,395.9v-59.5H414c7.8,0,15.1,3,20.6,8.4c11.7,11.4,11.9,30.4,0.7,42.3
			c-5.5,5.8-13.3,9.1-21.3,8.8H377.8z M553.5,378.4c-9.2-8.6-21.8-12.9-37.8-12.9c-20.5,0-35.9,7.6-46.1,22.7l19,12.1
			c7-10.3,16.5-15.5,28.5-15.5c7.6,0,15,2.9,20.8,8c5.6,4.9,8.8,12,8.8,19.4v5c-8.3-4.6-18.8-7.1-31.6-7.1c-15,0-27.1,3.5-36,10.7
			c-9,7.2-13.5,16.7-13.5,28.8c-0.3,11,4.4,21.5,12.7,28.5c8.4,7.6,19.2,11.4,31.8,11.4c14.9,0,26.7-6.7,35.6-20h0.9v16.2h20.6V414
			C567.3,398.9,562.7,386.9,553.5,378.4z M494.9,464.4c-4.4-3.3-7.1-8.6-7.1-14.3c0-6.4,2.9-11.7,8.7-15.9c5.9-4.2,13.3-6.4,22-6.4
			c12.1-0.1,21.4,2.6,28.1,8c0,9.2-3.6,17.3-10.7,24.1c-6.4,6.5-15.1,10.2-24.3,10.2C505.7,470.3,499.8,468.2,494.9,464.4z
			 M613.6,537.1l72.1-167.9h-23.4L628.9,453h-0.4l-34.2-83.7h-23.4l47.3,109.1l-26.8,58.7H613.6z"/>
		<path class="st2" d="M303.4,401.9c0-6.7-0.5-13.3-1.6-19.8h-91v37.7h52.1c-2.1,12.1-9.1,23-19.3,29.8v24.5h31.1
			C292.9,456.9,303.4,431.8,303.4,401.9z"/>
		<path class="st3" d="M210.8,497.6c26,0,48-8.7,63.9-23.7l-31.1-24.5c-8.7,6-19.8,9.4-32.8,9.4c-25.2,0-46.5-17.3-54.1-40.4h-32
			v25.3C141,476.8,174.3,497.6,210.8,497.6z"/>
		<path class="st4" d="M156.7,418.5c-4-12.1-4-25.3,0-37.5v-25.1h-32c-13.8,27.6-13.8,60.2,0,87.8L156.7,418.5z"/>
		<path class="st5" d="M210.8,340.6c13.8-0.3,27.1,5,37,14.7l27.6-28c-17.6-16.6-40.6-25.7-64.6-25.4c-36.4,0-69.8,20.9-86.1,54
			l32,25.3C164.3,357.9,185.6,340.6,210.8,340.6z"/>
	</g>
</g>
</svg>
