<svg xmlns="http://www.w3.org/2000/svg" x="0px" y="0px" viewBox="0 0 512 512" style="enable-background:new 0 0 512 512;" xml:space="preserve"><g><path d="M350.2,327.5c-13.8-1.4-25.5,9.5-25.5,23V375c0,12.7-10.4,23.1-23.1,23.1l-65.3-4.2V95.2c0-19.8-12.6-37.4-31.3-43.9
		l-7.1-2.4H292c12.7,0,23.1,10.4,23.1,23.1v21.8c0,12.1,8.7,23.1,20.7,24.4c13.8,1.4,25.5-9.5,25.5-23V72.1
		c0-38.3-31.1-69.4-82.7-69.4H126.9C66.8,2.6,18,51.4,18,111.5c0,0,0,290.9,0,291.2c0,29.2,12.8,58.9,33.3,79.6
		c35.1,35.4,94.6,25.9,139.9,27.3c25.2-0.6,45-21.9,45-47l0-22.4l65.3,4.2c38.3,0,69.4-31.1,69.4-69.4v-23.1
		C370.9,339.8,362.2,328.7,350.2,327.5z"/><path d="M489.3,211.2L414.1,136c-5.4-5.4-13.5-7-20.5-4.1c-7,2.9-11.6,9.8-11.6,17.4v56.4h-75.2c-10.4,0-18.8,8.4-18.8,18.8
		c0,10.4,8.4,18.8,18.8,18.8H382v56.4c0,7.6,4.6,14.4,11.6,17.4c7,2.9,15.1,1.3,20.5-4.1l75.2-75.2
		C496.6,230.4,496.6,218.5,489.3,211.2z"/></g>
</svg>
