<?xml version="1.0" encoding="utf-8"?>
<!-- Generator: Adobe Illustrator 23.1.0, SVG Export Plug-In . SVG Version: 6.00 Build 0)  -->
<svg version="1.1" id="Layer_1" xmlns="http://www.w3.org/2000/svg" xmlns:xlink="http://www.w3.org/1999/xlink" x="0px" y="0px"
	 viewBox="0 0 512 512" style="enable-background:new 0 0 512 512;" xml:space="preserve">
<g>
	<path d="M326.1,319.6c-11.7,0-21.1,9.5-21.1,21.1V383c0,11.6-9.5,21.1-21.1,21.1h-63.4V87.2c0-18.1-11.5-34.2-28.6-40.1l-6.4-2.2
		h98.4c11.6,0,21.1,9.5,21.1,21.1v21.1c0,11.7,9.5,21.1,21.1,21.1s21.1-9.5,21.1-21.1V66.1c0-34.9-28.4-63.4-63.4-63.4H56.7
		c-0.5,0-1,0.3-1.5,0.3C30.4,1,9.2,20.3,9.2,45v380.3c0,18.1,11.5,34.2,28.6,40.1l126.9,42.3c4.6,1.4,8.9,2.1,13.5,2.1
		c23.3,0,42.3-19,42.3-42.3v-21.1h63.4c34.9,0,63.4-28.4,63.4-63.4v-42.3C347.2,329.1,337.8,319.6,326.1,319.6z"/>
	<path d="M497.4,199l-84.5-84.5c-6-6-15.1-7.9-23-4.6c-7.9,3.3-13,11-13,19.5v63.4h-84.5c-11.7,0-21.1,9.5-21.1,21.1
		c0,11.7,9.5,21.1,21.1,21.1h84.5v63.4c0,8.5,5.2,16.2,13,19.5c7.9,3.3,17,1.5,23-4.6l84.5-84.5C505.7,220.7,505.7,207.3,497.4,199z
		"/>
</g>
</svg>
