<?xml version="1.0" encoding="utf-8"?>
<!-- Generator: Adobe Illustrator 23.1.0, SVG Export Plug-In . SVG Version: 6.00 Build 0)  -->
<svg version="1.1" id="Layer_1" xmlns="http://www.w3.org/2000/svg" xmlns:xlink="http://www.w3.org/1999/xlink" x="0px" y="0px"
	 viewBox="0 0 800 800" style="enable-background:new 0 0 800 800;" xml:space="preserve">
<style type="text/css">
	.st0{fill:#36495D;}
	.st1{fill:#F16522;}
	.st2{fill:#E41B24;}
	.st3{fill:#F89E1C;}
</style>
<g>
	<path class="st0" d="M798.3,193.4v413.3c0,40.8-33,73.8-73.8,73.8H75.5c-40.8,0-73.8-33-73.8-73.8V193.4c0-40.8,33-73.8,73.8-73.8
		h648.9C765.2,119.5,798.3,152.6,798.3,193.4z"/>
	<g id="XMLID_3_">
		<rect id="XMLID_41_" x="333.1" y="279.8" class="st1" width="133.8" height="240.5"/>
		<path id="XMLID_40_" class="st2" d="M341.6,400c0-48.8,22.8-92.2,58.4-120.2c-26-20.5-58.8-32.7-94.5-32.7
			c-84.5,0-152.9,68.5-152.9,152.9c0,84.5,68.5,152.9,152.9,152.9c35.7,0,68.5-12.2,94.5-32.7C364.4,492.2,341.6,448.8,341.6,400"/>
		<path id="XMLID_20_" class="st3" d="M647.4,400c0,84.5-68.5,152.9-152.9,152.9c-35.7,0-68.5-12.2-94.5-32.7
			c35.6-28,58.4-71.5,58.4-120.2s-22.8-92.2-58.4-120.2c26-20.5,58.8-32.7,94.5-32.7C579,247.1,647.4,315.5,647.4,400 M632.8,494.8
			v-4.9h2v-1h-5.1v1h2v4.9H632.8z M642.7,494.8v-5.9h-1.6l-1.8,4.1l-1.8-4.1H636v5.9h1.1v-4.5l1.7,3.9h1.1l1.7-3.9v4.5H642.7z"/>
	</g>
</g>
</svg>
