<svg xmlns="http://www.w3.org/2000/svg" x="0px" y="0px"
	 viewBox="0 0 512 512" style="enable-background:new 0 0 512 512;" xml:space="preserve"><g><circle cx="444.1" cy="70.4" r="66.1"/><path d="M474,174.4c-15.4,4.5-32.2,5.7-49.7,2.4c-44.3-8.2-79.7-44.1-86.9-88.6c-2.9-17.4-1.4-34.1,3.2-49.4
		c2.8-8.9-3.5-18.1-12.9-18.1H124C57.1,20.8,2.8,75,2.8,142v172.4c0,66.9,54.3,121.2,121.2,121.2h39.1c4.7,0,9.1,1.9,12.4,5.2
		l59.3,61.6c6.8,7,18,7,24.7,0l59-61.5c3.2-3.4,7.7-5.3,12.4-5.3h39.4c66.9,0,121.2-54.3,121.2-121.2V187.5
		C491.5,178.3,482.7,171.8,474,174.4z M144.7,271.9c-16.3,0-29.5-13.2-29.5-29.5c0-16.3,13.2-29.5,29.5-29.5s29.5,13.2,29.5,29.5
		C174.2,258.7,161,271.9,144.7,271.9z M247.2,271.9c-16.3,0-29.5-13.2-29.5-29.5c0-16.3,13.2-29.5,29.5-29.5s29.5,13.2,29.5,29.5
		C276.7,258.7,263.5,271.9,247.2,271.9z M349.6,271.9c-16.3,0-29.5-13.2-29.5-29.5c0-16.3,13.2-29.5,29.5-29.5
		c16.3,0,29.5,13.2,29.5,29.5C379.2,258.7,365.9,271.9,349.6,271.9z"/></g>
</svg>
