<?xml version="1.0" encoding="utf-8"?>
<!-- Generator: Adobe Illustrator 23.1.0, SVG Export Plug-In . SVG Version: 6.00 Build 0)  -->
<svg version="1.1" id="Layer_1" xmlns="http://www.w3.org/2000/svg" xmlns:xlink="http://www.w3.org/1999/xlink" x="0px" y="0px"
	 viewBox="0 0 800 800" style="enable-background:new 0 0 800 800;" xml:space="preserve">
<style type="text/css">
	.st0{fill:#253B80;}
	.st1{fill:#FFFFFF;}
</style>
<g>
	<path class="st0" d="M789.5,197.9v404.2c0,39.9-32.3,72.2-72.2,72.2H82.7c-39.9,0-72.2-32.3-72.2-72.2V197.9
		c0-39.9,32.3-72.2,72.2-72.2h634.6C757.2,125.7,789.5,158,789.5,197.9z"/>
	<g id="XMLID_1_">
		<path id="XMLID_57_" class="st1" d="M197.6,367.1c-2.3,15.2-14,15.2-25.2,15.2H166l4.5-28.4c0.3-1.7,1.8-3,3.5-3h2.9
			c7.7,0,14.9,0,18.6,4.4C197.7,357.8,198.4,361.7,197.6,367.1z M192.7,327.3h-42.4c-2.9,0-5.4,2.1-5.8,5l-17.2,108.8
			c-0.3,2.1,1.3,4.1,3.5,4.1H151c2.9,0,5.4-2.1,5.8-5l4.6-29.4c0.4-2.9,2.9-5,5.8-5h13.4c28,0,44.1-13.5,48.3-40.3
			c1.9-11.7,0.1-20.9-5.4-27.4C217.6,331.1,206.9,327.3,192.7,327.3z"/>
		<path id="XMLID_54_" class="st1" d="M291.2,406.1c-2,11.6-11.2,19.4-22.9,19.4c-5.9,0-10.6-1.9-13.6-5.5c-3-3.6-4.1-8.6-3.2-14.3
			c1.8-11.5,11.2-19.6,22.8-19.6c5.8,0,10.5,1.9,13.6,5.5C290.9,395.4,292.1,400.5,291.2,406.1z M319.5,366.6h-20.3
			c-1.7,0-3.2,1.3-3.5,3l-0.9,5.7l-1.4-2.1c-4.4-6.4-14.2-8.5-24-8.5c-22.5,0-41.6,17-45.4,40.9c-1.9,11.9,0.8,23.3,7.6,31.2
			c6.2,7.3,15.1,10.3,25.6,10.3c18.1,0,28.1-11.6,28.1-11.6l-0.9,5.6c-0.3,2.2,1.3,4.1,3.5,4.1h18.3c2.9,0,5.4-2.1,5.8-5l11-69.6
			C323.4,368.5,321.7,366.6,319.5,366.6z"/>
		<path id="XMLID_33_" class="st1" d="M427.8,366.6h-20.4c-1.9,0-3.8,1-4.9,2.6l-28.2,41.5l-11.9-39.9c-0.8-2.5-3.1-4.2-5.7-4.2
			h-20.1c-2.4,0-4.1,2.4-3.4,4.7l22.5,66l-21.1,29.9c-1.7,2.4,0,5.6,2.9,5.6h20.4c1.9,0,3.7-0.9,4.8-2.5l67.9-98
			C432.3,369.8,430.6,366.6,427.8,366.6z"/>
		<path id="XMLID_38_" class="st1" d="M500.3,367.1c-2.3,15.2-13.9,15.2-25.2,15.2h-6.4l4.5-28.4c0.3-1.7,1.7-3,3.5-3h2.9
			c7.7,0,14.9,0,18.6,4.4C500.4,357.8,501.1,361.7,500.3,367.1z M495.4,327.3h-42.4c-2.9,0-5.4,2.1-5.8,5l-17.2,108.8
			c-0.3,2.1,1.3,4.1,3.5,4.1h21.8c2,0,3.8-1.5,4.1-3.5l4.9-30.8c0.4-2.9,2.9-5,5.8-5h13.4c28,0,44.1-13.5,48.3-40.3
			c1.9-11.7,0.1-20.9-5.4-27.4C520.3,331.1,509.6,327.3,495.4,327.3z"/>
		<path id="XMLID_21_" class="st1" d="M593.9,406.1c-1.9,11.6-11.2,19.4-22.9,19.4c-5.9,0-10.6-1.9-13.6-5.5
			c-3-3.6-4.1-8.6-3.2-14.3c1.8-11.5,11.2-19.6,22.8-19.6c5.8,0,10.5,1.9,13.6,5.5C593.6,395.4,594.8,400.5,593.9,406.1z
			 M622.2,366.6h-20.3c-1.7,0-3.2,1.3-3.5,3l-0.9,5.7l-1.4-2.1c-4.4-6.4-14.2-8.5-24-8.5c-22.5,0-41.6,17-45.4,40.9
			c-1.9,11.9,0.8,23.3,7.6,31.2c6.2,7.3,15.1,10.3,25.6,10.3c18.1,0,28.1-11.6,28.1-11.6l-0.9,5.6c-0.3,2.2,1.3,4.1,3.5,4.1h18.3
			c2.9,0,5.4-2.1,5.8-5l11-69.6C626.1,368.5,624.4,366.6,622.2,366.6z"/>
		<path id="XMLID_28_" class="st1" d="M646.2,330.3l-17.4,110.8c-0.3,2.1,1.3,4.1,3.5,4.1h17.5c2.9,0,5.4-2.1,5.8-5l17.2-108.8
			c0.3-2.1-1.3-4.1-3.5-4.1h-19.6C647.9,327.3,646.5,328.6,646.2,330.3z"/>
	</g>
</g>
</svg>
