<?xml version="1.0" encoding="utf-8"?>
<!-- Generator: Adobe Illustrator 23.1.0, SVG Export Plug-In . SVG Version: 6.00 Build 0)  -->
<svg version="1.1" id="Layer_1" xmlns="http://www.w3.org/2000/svg" xmlns:xlink="http://www.w3.org/1999/xlink" x="0px" y="0px"
	 viewBox="0 0 800 800" style="enable-background:new 0 0 800 800;" xml:space="preserve">
<style type="text/css">
	.st0{fill:#0066B2;}
	.st1{fill:#FFFFFF;}
	.st2{fill:#F9A533;}
</style>
<g>
	<path id="XMLID_4_" class="st0" d="M765.5,678.5H34.5c-16.5,0-29.9-13.4-29.9-29.9V151.4c0-16.5,13.4-29.9,29.9-29.9h731.1
		c16.5,0,29.9,13.4,29.9,29.9v497.2C795.4,665.1,782.1,678.5,765.5,678.5z"/>
	<g id="XMLID_7_">
		<g id="XMLID_9_">
			<polygon id="XMLID_19_" class="st1" points="366.4,487.2 325.2,487.2 351,329 392.2,329 			"/>
			<path id="XMLID_18_" class="st1" d="M290.6,329l-39.3,108.8l-4.6-23.4l0,0l-13.9-71.1c0,0-1.7-14.3-19.5-14.3h-64.9l-0.8,2.7
				c0,0,19.9,4.1,43.1,18.1l35.8,137.5h42.9L334.9,329H290.6z"/>
			<path id="XMLID_11_" class="st1" d="M614.6,487.2h37.8l-33-158.2h-33.1c-15.3,0-19,11.8-19,11.8l-61.4,146.4h42.9l8.6-23.5h52.4
				L614.6,487.2z M569.3,431.3l21.6-59.2l12.2,59.2H569.3z"/>
			<path id="XMLID_10_" class="st1" d="M509.1,367.1l5.9-34c0,0-18.1-6.9-37-6.9c-20.4,0-69,8.9-69,52.4c0,40.9,57,41.4,57,62.9
				s-51.1,17.6-68,4.1l-6.1,35.5c0,0,18.4,8.9,46.5,8.9c28.1,0,70.5-14.6,70.5-54.2c0-41.1-57.5-45-57.5-62.9
				C451.3,355.1,491.5,357.4,509.1,367.1z"/>
		</g>
		<path id="XMLID_8_" class="st2" d="M246.7,414.4l-13.9-71.1c0,0-1.7-14.3-19.5-14.3h-64.9l-0.8,2.7c0,0,31.2,6.5,61.1,30.7
			C237.3,385.6,246.7,414.4,246.7,414.4z"/>
	</g>
</g>
</svg>
