<svg xmlns="http://www.w3.org/2000/svg" x="0px" y="0px" viewBox="0 0 512 512" style="enable-background:new 0 0 512 512;" xml:space="preserve">
<path d="M29.3,48.4c0-17,13.8-30.8,30.8-30.8h391.7c17,0,30.8,13.8,30.8,30.8s-13.8,30.8-30.8,30.8v353.5c17,0,30.8,13.8,30.8,30.8
	s-13.8,30.8-30.8,30.8H60.1c-17,0-30.8-13.8-30.8-30.8s13.8-30.8,30.8-30.8V79.2C43.1,79.2,29.3,65.5,29.3,48.4z M256,84.9
	c-8.5,0-15.4,6.9-15.4,15.4v53.5h-77c-8.5,0-15.4,6.9-15.4,15.4s6.9,15.4,15.4,15.4h77v51.9H132.8c-8.5,0-15.4,6.9-15.4,15.4
	s6.9,15.4,15.4,15.4h107.8V341l-49-18.9c-5-1.9-10.2-2.9-15.6-2.9h-2c-22.7,0-41.2,18.5-41.2,41.2c0,9.2,3.1,18.2,8.8,25.4
	l17.5,22.3c9.3,11.9,23.7,18.9,38.8,18.9h116.3c15.1,0,29.5-6.9,38.8-18.9l17.5-22.3c5.7-7.2,8.8-16.2,8.8-25.4
	c0-22.7-18.5-41.2-41.2-41.2H336c-5.3,0-10.6,1-15.6,2.9l-49,18.9v-73.6h107.8c8.5,0,15.4-6.9,15.4-15.4s-6.9-15.4-15.4-15.4H271.4
	v-51.9h77c8.5,0,15.4-6.9,15.4-15.4s-6.9-15.4-15.4-15.4h-77v-53.5C271.4,91.9,264.5,84.9,256,84.9z M209.8,365.4
	c8.5,0,15.4,6.9,15.4,15.4s-6.9,15.4-15.4,15.4s-15.4-6.9-15.4-15.4S201.3,365.4,209.8,365.4z M286.8,380.9
	c0-8.5,6.9-15.4,15.4-15.4s15.4,6.9,15.4,15.4s-6.9,15.4-15.4,15.4S286.8,389.4,286.8,380.9z"/>
</svg>
